<?xml version="1.0" encoding="utf-8"?>
<!DOCTYPE svg PUBLIC "-//W3C//DTD SVG 1.1//EN" "http://www.w3.org/Graphics/SVG/1.1/DTD/svg11.dtd">
<svg version="1.1" id="buttons" xmlns="http://www.w3.org/2000/svg" xmlns:xlink="http://www.w3.org/1999/xlink" x="0px" y="0px"
	 width="40px" height="80px" viewBox="0 0 40 80" enable-background="new 0 0 40 80" xml:space="preserve">
<path fill="#FFFFFF" d="M27.709,20.711l-7,7c-0.2,0.19-0.45,0.29-0.71,0.29s-0.51-0.1-0.71-0.29l-1-1c-0.39-0.39-0.39-1.03,0-1.42
	l3.3-3.29h-8.59c-0.55,0-1-0.45-1-1v-2c0-0.55,0.45-1,1-1h8.59l-3.3-3.29c-0.39-0.39-0.39-1.03,0-1.42l1-1
	c0.39-0.39,1.03-0.39,1.42,0l7,7C28.099,19.681,28.099,20.32,27.709,20.711z"/>
<path fill="#FFFFFF" d="M12.292,59.289l6.999-7c0.201-0.19,0.451-0.29,0.711-0.29s0.51,0.1,0.709,0.29l1,1
	c0.391,0.39,0.391,1.03,0,1.42l-3.299,3.29h8.59c0.549,0,1,0.45,1,1v2c0,0.55-0.451,1-1,1h-8.59l3.3,3.29
	c0.39,0.391,0.39,1.03,0,1.42l-1,1c-0.39,0.391-1.03,0.391-1.42,0l-7-7C11.902,60.319,11.902,59.68,12.292,59.289z"/>
</svg>
