<?xml version="1.0" encoding="utf-8"?>
<!DOCTYPE svg PUBLIC "-//W3C//DTD SVG 1.1//EN" "http://www.w3.org/Graphics/SVG/1.1/DTD/svg11.dtd">
<svg version="1.1" id="Ebene_1" xmlns="http://www.w3.org/2000/svg" xmlns:xlink="http://www.w3.org/1999/xlink" x="0px" y="0px"
	 width="560px" height="340px" viewBox="0 0 560 340" enable-background="new 0 0 560 340" xml:space="preserve">
<rect id="toolbar-l" x="30" y="13" opacity="0.05" enable-background="new    " width="128" height="17"/>
<rect id="toolbar-r" x="162" y="13" opacity="0.05" enable-background="new    " width="118" height="17"/>
<rect id="logo" x="30" y="35" opacity="0.05" enable-background="new    " width="54" height="17"/>
<rect id="headerbar" x="89" y="35" opacity="0.05" enable-background="new    " width="132" height="17"/>
<rect id="menu" x="30.442" y="57" opacity="0.05" enable-background="new    " width="250" height="17"/>
<rect id="search" x="226" y="35" opacity="0.05" enable-background="new    " width="54" height="17"/>
<g id="top-a" opacity="0.1">
	<rect x="30" y="79" fill="#777777" width="250" height="22"/>
</g>
<g id="top-b" opacity="0.1">
	<rect x="30" y="106" fill="#777777" width="250" height="22"/>
</g>
<rect id="sidebar-a__x28_left_x29_" x="30" y="160" opacity="0.2" fill="#444444" enable-background="new    " width="26" height="92"/>
<rect id="sidebar-b__x28_left_x29_" x="61" y="160" opacity="0.2" fill="#444444" enable-background="new    " width="26" height="92"/>
<rect id="sidebar-a__x28_right_x29_" x="254" y="160" opacity="0.2" fill="#444444" enable-background="new    " width="26" height="92"/>
<rect id="sidebar-b__x28_right_x29_" x="223" y="160" opacity="0.2" fill="#444444" enable-background="new    " width="26" height="92"/>
<g id="inner_top" opacity="0.1">
	<rect x="92" y="160" fill="#777777" width="126" height="20"/>
</g>
<rect id="content" x="92" y="185" opacity="0.05" enable-background="new    " width="126" height="42"/>
<g id="inner_bottom" opacity="0.1">
	<rect x="92" y="232" fill="#777777" width="126" height="20"/>
</g>
<g id="bottom-a" opacity="0.1">
	<rect x="30" y="257" fill="#777777" width="250" height="22"/>
</g>
<g id="bottom-b" opacity="0.1">
	<rect x="30" y="284" fill="#777777" width="250" height="22"/>
</g>
<rect id="footer" x="30" y="311" opacity="0.05" enable-background="new    " width="250" height="17"/>
<g>
	<path fill="#444444" d="M76.282,25h-0.747v-5.761H73.5v-0.664h4.814v0.664H76.28L76.282,25L76.282,25z"/>
	<path fill="#444444" d="M84.86,21.779c0,1.028-0.26,1.837-0.778,2.426c-0.521,0.589-1.243,0.883-2.168,0.883
		c-0.946,0-1.678-0.289-2.191-0.868c-0.514-0.578-0.771-1.395-0.771-2.45c0-1.046,0.258-1.857,0.771-2.432
		c0.516-0.576,1.248-0.864,2.197-0.864c0.923,0,1.644,0.293,2.162,0.879C84.6,19.939,84.86,20.748,84.86,21.779z M79.74,21.779
		c0,0.87,0.186,1.53,0.557,1.98c0.37,0.45,0.909,0.674,1.615,0.674c0.712,0,1.25-0.224,1.611-0.672
		c0.363-0.448,0.545-1.109,0.545-1.982c0-0.864-0.181-1.52-0.543-1.966c-0.36-0.446-0.896-0.67-1.604-0.67
		c-0.712,0-1.253,0.225-1.624,0.674C79.925,20.267,79.74,20.92,79.74,21.779z"/>
	<path fill="#444444" d="M91.869,21.779c0,1.028-0.262,1.837-0.78,2.426c-0.521,0.589-1.243,0.883-2.168,0.883
		c-0.946,0-1.676-0.289-2.191-0.868c-0.514-0.578-0.771-1.395-0.771-2.45c0-1.046,0.258-1.857,0.771-2.432
		c0.518-0.576,1.248-0.864,2.197-0.864c0.923,0,1.644,0.293,2.162,0.879S91.869,20.748,91.869,21.779z M86.75,21.779
		c0,0.87,0.185,1.53,0.556,1.98c0.37,0.45,0.909,0.674,1.615,0.674c0.712,0,1.25-0.224,1.613-0.672
		c0.361-0.448,0.545-1.109,0.545-1.982c0-0.864-0.183-1.52-0.543-1.966c-0.362-0.446-0.897-0.67-1.606-0.67
		c-0.712,0-1.253,0.225-1.624,0.674C86.935,20.267,86.75,20.92,86.75,21.779z"/>
	<path fill="#444444" d="M93.302,25v-6.425h0.747v5.748h2.834V25H93.302z"/>
	<path fill="#444444" d="M97.973,18.575h1.815c0.853,0,1.469,0.127,1.85,0.382s0.571,0.658,0.571,1.208
		c0,0.381-0.106,0.695-0.319,0.942c-0.212,0.248-0.521,0.408-0.929,0.481v0.044c0.976,0.167,1.463,0.68,1.463,1.538
		c0,0.574-0.194,1.022-0.582,1.345c-0.388,0.324-0.93,0.485-1.628,0.485h-2.241V18.575z M98.72,21.326h1.23
		c0.525,0,0.905-0.083,1.138-0.248c0.229-0.165,0.347-0.445,0.347-0.837c0-0.36-0.129-0.62-0.387-0.78s-0.668-0.24-1.23-0.24H98.72
		V21.326z M98.72,21.959v2.404h1.34c0.521,0,0.909-0.1,1.171-0.301c0.264-0.2,0.396-0.515,0.396-0.942
		c0-0.398-0.134-0.691-0.402-0.879c-0.268-0.188-0.676-0.281-1.224-0.281L98.72,21.959L98.72,21.959z"/>
	<path fill="#444444" d="M107.843,25l-0.8-2.043h-2.575L103.677,25h-0.756l2.54-6.451h0.628L108.617,25H107.843z M106.811,22.284
		l-0.747-1.991c-0.097-0.252-0.194-0.561-0.299-0.927c-0.063,0.281-0.157,0.59-0.277,0.927l-0.756,1.991H106.811z"/>
	<path fill="#444444" d="M110.247,22.328V25H109.5v-6.425h1.762c0.788,0,1.37,0.151,1.747,0.453
		c0.376,0.302,0.563,0.756,0.563,1.362c0,0.85-0.431,1.424-1.292,1.723L114.026,25h-0.883l-1.556-2.672H110.247z M110.247,21.687
		h1.022c0.527,0,0.914-0.104,1.16-0.314c0.246-0.209,0.369-0.523,0.369-0.942c0-0.425-0.125-0.731-0.376-0.918
		c-0.25-0.188-0.652-0.281-1.206-0.281h-0.971L110.247,21.687L110.247,21.687z"/>
	<path fill="#444444" d="M114.549,22.921v-0.668h2.158v0.668H114.549z"/>
	<path fill="#444444" d="M117.959,25v-6.425h0.747v5.748h2.834V25H117.959z"/>
</g>
<g enable-background="new    ">
	<path fill="#444444" d="M197.795,24.912h-0.747V19.15h-2.035v-0.663h4.816v0.663h-2.035L197.795,24.912L197.795,24.912z"/>
	<path fill="#444444" d="M206.374,21.691c0,1.027-0.262,1.836-0.78,2.426c-0.52,0.588-1.243,0.883-2.168,0.883
		c-0.946,0-1.676-0.289-2.191-0.868c-0.514-0.578-0.771-1.396-0.771-2.45c0-1.045,0.258-1.856,0.771-2.432
		c0.518-0.576,1.248-0.863,2.197-0.863c0.923,0,1.646,0.293,2.162,0.879S206.374,20.66,206.374,21.691z M201.254,21.691
		c0,0.869,0.185,1.529,0.556,1.979c0.37,0.449,0.909,0.675,1.615,0.675c0.712,0,1.25-0.225,1.613-0.673
		c0.361-0.448,0.545-1.108,0.545-1.981c0-0.864-0.183-1.521-0.543-1.967c-0.362-0.447-0.897-0.67-1.606-0.67
		c-0.712,0-1.253,0.225-1.624,0.674C201.439,20.179,201.254,20.833,201.254,21.691z"/>
	<path fill="#444444" d="M213.383,21.691c0,1.027-0.26,1.836-0.78,2.426c-0.52,0.588-1.243,0.883-2.168,0.883
		c-0.946,0-1.676-0.289-2.189-0.868c-0.516-0.578-0.771-1.396-0.771-2.45c0-1.045,0.258-1.856,0.773-2.432
		c0.515-0.576,1.248-0.863,2.195-0.863c0.925,0,1.646,0.293,2.162,0.879C213.123,19.852,213.383,20.66,213.383,21.691z
		 M208.263,21.691c0,0.869,0.185,1.529,0.556,1.979c0.37,0.449,0.909,0.675,1.615,0.675c0.712,0,1.25-0.225,1.613-0.673
		c0.363-0.448,0.545-1.108,0.545-1.981c0-0.864-0.181-1.521-0.543-1.967c-0.362-0.447-0.897-0.67-1.606-0.67
		c-0.712,0-1.253,0.225-1.624,0.674C208.448,20.179,208.263,20.833,208.263,21.691z"/>
	<path fill="#444444" d="M214.815,24.912v-6.425h0.747v5.748h2.834v0.677H214.815z"/>
	<path fill="#444444" d="M219.487,18.487h1.815c0.853,0,1.469,0.128,1.851,0.382c0.383,0.256,0.57,0.658,0.57,1.209
		c0,0.381-0.104,0.695-0.318,0.942c-0.213,0.248-0.521,0.408-0.929,0.481v0.044c0.978,0.167,1.463,0.68,1.463,1.538
		c0,0.574-0.192,1.022-0.582,1.345c-0.389,0.322-0.931,0.483-1.628,0.483h-2.241L219.487,18.487L219.487,18.487z M220.234,21.238
		h1.23c0.527,0,0.907-0.083,1.138-0.248c0.231-0.166,0.349-0.444,0.349-0.838c0-0.359-0.131-0.62-0.389-0.779
		c-0.258-0.16-0.668-0.24-1.229-0.24h-1.101L220.234,21.238L220.234,21.238z M220.234,21.871v2.404h1.342
		c0.519,0,0.907-0.101,1.171-0.302c0.262-0.2,0.394-0.515,0.394-0.942c0-0.398-0.134-0.691-0.402-0.879
		c-0.268-0.188-0.676-0.281-1.224-0.281H220.234z"/>
	<path fill="#444444" d="M229.357,24.912l-0.801-2.043h-2.574l-0.791,2.043h-0.756l2.539-6.451h0.629l2.527,6.451H229.357z
		 M228.324,22.196l-0.747-1.991c-0.099-0.251-0.196-0.561-0.301-0.927c-0.063,0.281-0.155,0.591-0.274,0.927l-0.756,1.991H228.324z"
		/>
	<path fill="#444444" d="M231.761,22.24v2.672h-0.747v-6.425h1.762c0.789,0,1.371,0.151,1.748,0.452
		c0.375,0.303,0.564,0.756,0.564,1.363c0,0.85-0.434,1.424-1.293,1.723l1.745,2.887h-0.886L233.1,22.24H231.761z M231.761,21.599
		h1.024c0.525,0,0.914-0.104,1.158-0.314c0.246-0.209,0.369-0.523,0.369-0.942c0-0.425-0.125-0.73-0.377-0.918
		c-0.25-0.188-0.65-0.281-1.205-0.281h-0.972L231.761,21.599L231.761,21.599z"/>
	<path fill="#444444" d="M236.062,22.834v-0.668h2.158v0.668H236.062z"/>
	<path fill="#444444" d="M240.221,22.24v2.672h-0.748v-6.425h1.763c0.788,0,1.37,0.151,1.747,0.452
		c0.376,0.303,0.564,0.756,0.564,1.363c0,0.85-0.431,1.424-1.292,1.723L244,24.912h-0.884l-1.558-2.672H240.221z M240.221,21.599
		h1.023c0.525,0,0.914-0.104,1.158-0.314c0.246-0.209,0.369-0.523,0.369-0.942c0-0.425-0.125-0.73-0.376-0.918
		c-0.25-0.188-0.65-0.281-1.206-0.281h-0.971L240.221,21.599L240.221,21.599z"/>
</g>
<g>
	<path fill="#444444" d="M118.854,47h-0.747v-3.023h-3.384V47h-0.747v-6.425h0.747v2.733h3.384v-2.733h0.747V47z"/>
	<path fill="#444444" d="M124.198,47h-3.58v-6.425h3.58v0.664h-2.834v2.07h2.663v0.659h-2.663v2.364h2.834V47z"/>
	<path fill="#444444" d="M129.66,47l-0.802-2.043h-2.573L125.494,47h-0.758l2.54-6.451h0.628L130.434,47H129.66z M128.627,44.284
		l-0.747-1.991c-0.097-0.252-0.196-0.561-0.299-0.927c-0.064,0.281-0.157,0.59-0.277,0.927l-0.756,1.991H128.627z"/>
	<path fill="#444444" d="M136.445,43.726c0,1.061-0.286,1.872-0.861,2.432C135.006,46.72,134.178,47,133.097,47h-1.78v-6.425h1.971
		c0.999,0,1.773,0.277,2.328,0.831C136.169,41.96,136.445,42.733,136.445,43.726z M135.654,43.752c0-0.838-0.21-1.469-0.631-1.894
		c-0.421-0.425-1.045-0.637-1.874-0.637h-1.085v5.133h0.91c0.893,0,1.562-0.219,2.008-0.657
		C135.43,45.259,135.654,44.611,135.654,43.752z"/>
	<path fill="#444444" d="M141.459,47h-3.582v-6.425h3.582v0.664h-2.834v2.07h2.663v0.659h-2.663v2.364h2.834V47z"/>
	<path fill="#444444" d="M143.63,44.328V47h-0.747v-6.425h1.762c0.788,0,1.37,0.151,1.747,0.453
		c0.376,0.302,0.564,0.756,0.564,1.362c0,0.85-0.433,1.424-1.292,1.723L147.41,47h-0.885l-1.556-2.672H143.63z M143.63,43.687h1.022
		c0.527,0,0.914-0.104,1.16-0.314c0.246-0.209,0.369-0.523,0.369-0.942c0-0.425-0.125-0.731-0.376-0.918
		c-0.25-0.188-0.652-0.281-1.206-0.281h-0.971L143.63,43.687L143.63,43.687z"/>
	<path fill="#444444" d="M148.447,40.575h1.815c0.854,0,1.469,0.127,1.85,0.382c0.383,0.255,0.571,0.658,0.571,1.208
		c0,0.381-0.104,0.695-0.319,0.942c-0.212,0.248-0.521,0.408-0.929,0.481v0.044c0.978,0.167,1.463,0.68,1.463,1.538
		c0,0.574-0.192,1.022-0.582,1.345c-0.389,0.322-0.931,0.483-1.628,0.483h-2.241V40.575z M149.194,43.326h1.23
		c0.527,0,0.907-0.083,1.138-0.248c0.231-0.165,0.349-0.445,0.349-0.837c0-0.36-0.131-0.62-0.389-0.78s-0.668-0.24-1.229-0.24
		h-1.101L149.194,43.326L149.194,43.326z M149.194,43.959v2.404h1.342c0.519,0,0.907-0.1,1.171-0.301
		c0.262-0.2,0.394-0.515,0.394-0.942c0-0.398-0.134-0.691-0.401-0.879c-0.269-0.188-0.677-0.281-1.225-0.281L149.194,43.959
		L149.194,43.959z"/>
	<path fill="#444444" d="M158.317,47l-0.8-2.043h-2.575L154.151,47h-0.756l2.54-6.451h0.628L159.09,47H158.317z M157.284,44.284
		l-0.747-1.991c-0.099-0.252-0.196-0.561-0.301-0.927c-0.063,0.281-0.155,0.59-0.275,0.927l-0.756,1.991H157.284z"/>
	<path fill="#444444" d="M160.721,44.328V47h-0.747v-6.425h1.762c0.788,0,1.37,0.151,1.747,0.453
		c0.376,0.302,0.564,0.756,0.564,1.362c0,0.85-0.431,1.424-1.292,1.723L164.5,47h-0.883l-1.558-2.672H160.721z M160.721,43.687
		h1.024c0.525,0,0.914-0.104,1.158-0.314c0.246-0.209,0.369-0.523,0.369-0.942c0-0.425-0.125-0.731-0.376-0.918
		c-0.25-0.188-0.65-0.281-1.206-0.281h-0.971L160.721,43.687L160.721,43.687z"/>
</g>
<g>
	<path fill="#444444" d="M46.69,47v-6.425h0.747v5.748h2.834V47H46.69z"/>
	<path fill="#444444" d="M56.938,43.779c0,1.028-0.26,1.837-0.778,2.426c-0.521,0.589-1.243,0.883-2.168,0.883
		c-0.946,0-1.678-0.289-2.191-0.868c-0.514-0.578-0.771-1.395-0.771-2.45c0-1.046,0.26-1.857,0.773-2.432
		c0.516-0.576,1.248-0.864,2.197-0.864c0.923,0,1.644,0.293,2.162,0.879C56.678,41.939,56.938,42.748,56.938,43.779z M51.819,43.779
		c0,0.87,0.187,1.53,0.558,1.98c0.37,0.45,0.909,0.674,1.615,0.674c0.712,0,1.25-0.224,1.611-0.672
		c0.363-0.448,0.545-1.109,0.545-1.982c0-0.864-0.181-1.52-0.543-1.966c-0.36-0.446-0.896-0.67-1.604-0.67
		c-0.712,0-1.253,0.225-1.624,0.674C52.004,42.267,51.819,42.92,51.819,43.779z"/>
	<path fill="#444444" d="M61.197,43.634h2.186v3.125c-0.34,0.108-0.688,0.19-1.037,0.246c-0.351,0.056-0.759,0.083-1.222,0.083
		c-0.975,0-1.73-0.289-2.272-0.868c-0.542-0.578-0.813-1.389-0.813-2.432c0-0.668,0.134-1.253,0.4-1.755
		c0.271-0.502,0.654-0.886,1.158-1.151c0.504-0.265,1.094-0.398,1.771-0.398c0.686,0,1.322,0.126,1.916,0.378l-0.29,0.659
		c-0.58-0.246-1.14-0.369-1.676-0.369c-0.78,0-1.393,0.233-1.833,0.699c-0.438,0.466-0.657,1.112-0.657,1.938
		c0,0.867,0.211,1.525,0.635,1.973c0.423,0.448,1.045,0.672,1.865,0.672c0.443,0,0.88-0.051,1.305-0.154v-1.979h-1.438
		L61.197,43.634L61.197,43.634z"/>
	<path fill="#444444" d="M70.5,43.779c0,1.028-0.261,1.837-0.78,2.426s-1.243,0.883-2.168,0.883c-0.946,0-1.676-0.289-2.191-0.868
		c-0.514-0.578-0.771-1.395-0.771-2.45c0-1.046,0.258-1.857,0.771-2.432c0.518-0.576,1.248-0.864,2.197-0.864
		c0.923,0,1.646,0.293,2.162,0.879S70.5,42.748,70.5,43.779z M65.38,43.779c0,0.87,0.185,1.53,0.556,1.98
		c0.37,0.45,0.909,0.674,1.615,0.674c0.712,0,1.25-0.224,1.613-0.672c0.361-0.448,0.545-1.109,0.545-1.982
		c0-0.864-0.183-1.52-0.543-1.966c-0.362-0.446-0.897-0.67-1.606-0.67c-0.712,0-1.253,0.225-1.624,0.674
		C65.565,42.267,65.38,42.92,65.38,43.779z"/>
</g>
<g>
	<path fill="#444444" d="M150.901,69l-2.18-5.695h-0.035c0.041,0.451,0.063,0.987,0.063,1.608V69h-0.689v-6.425h1.125l2.035,5.3
		h0.034l2.053-5.3h1.115V69h-0.746v-4.14c0-0.475,0.021-0.99,0.062-1.547h-0.034L151.503,69H150.901z"/>
	<path fill="#444444" d="M159.765,69h-3.582v-6.425h3.582v0.664h-2.834v2.07h2.663v0.659h-2.663v2.364h2.834V69z"/>
	<path fill="#444444" d="M166.207,69h-0.854l-3.511-5.392h-0.035c0.047,0.633,0.069,1.213,0.069,1.74V69h-0.689v-6.425h0.845
		l3.502,5.37h0.034c-0.006-0.079-0.019-0.333-0.04-0.763c-0.021-0.429-0.027-0.736-0.021-0.92v-3.687h0.698L166.207,69L166.207,69z"
		/>
	<path fill="#444444" d="M172.826,62.575v4.157c0,0.732-0.222,1.308-0.664,1.727s-1.051,0.628-1.824,0.628s-1.371-0.211-1.795-0.633
		c-0.423-0.422-0.635-1.002-0.635-1.74v-4.14h0.746v4.192c0,0.536,0.146,0.948,0.439,1.235s0.724,0.431,1.292,0.431
		c0.542,0,0.959-0.144,1.252-0.433c0.293-0.288,0.438-0.702,0.438-1.241v-4.184L172.826,62.575L172.826,62.575z"/>
</g>
<g>
	<path fill="#444444" d="M242.366,45.291c0,0.565-0.205,1.006-0.615,1.323c-0.41,0.317-0.967,0.475-1.67,0.475
		c-0.764,0-1.35-0.098-1.76-0.294v-0.721c0.266,0.111,0.553,0.199,0.861,0.264c0.312,0.065,0.618,0.097,0.923,0.097
		c0.498,0,0.873-0.094,1.125-0.284c0.252-0.188,0.378-0.452,0.378-0.789c0-0.223-0.045-0.405-0.134-0.547
		c-0.09-0.142-0.239-0.273-0.448-0.393c-0.21-0.12-0.526-0.256-0.956-0.409c-0.598-0.214-1.023-0.467-1.279-0.76
		s-0.384-0.675-0.384-1.147c0-0.495,0.186-0.889,0.558-1.182s0.864-0.439,1.477-0.439c0.641,0,1.228,0.117,1.764,0.352l-0.233,0.65
		c-0.53-0.223-1.046-0.334-1.547-0.334c-0.396,0-0.705,0.085-0.927,0.255c-0.224,0.17-0.334,0.406-0.334,0.708
		c0,0.223,0.041,0.405,0.123,0.547c0.082,0.143,0.22,0.272,0.416,0.392c0.192,0.118,0.491,0.25,0.894,0.393
		c0.674,0.24,1.137,0.498,1.391,0.773C242.239,44.494,242.366,44.851,242.366,45.291z"/>
	<path fill="#444444" d="M247.262,47h-3.582v-6.425h3.582v0.664h-2.834v2.07h2.663v0.659h-2.663v2.364h2.834V47z"/>
	<path fill="#444444" d="M252.724,47l-0.8-2.043h-2.575L248.558,47h-0.756l2.54-6.451h0.628L253.498,47H252.724z M251.691,44.284
		l-0.747-1.991c-0.097-0.252-0.194-0.561-0.299-0.927c-0.063,0.281-0.157,0.59-0.275,0.927l-0.758,1.991H251.691z"/>
	<path fill="#444444" d="M255.128,44.328V47h-0.747v-6.425h1.762c0.788,0,1.37,0.151,1.747,0.453
		c0.376,0.302,0.564,0.756,0.564,1.362c0,0.85-0.433,1.424-1.292,1.723L258.907,47h-0.885l-1.556-2.672H255.128z M255.128,43.687
		h1.022c0.527,0,0.914-0.104,1.16-0.314c0.246-0.209,0.369-0.523,0.369-0.942c0-0.425-0.125-0.731-0.376-0.918
		c-0.25-0.188-0.652-0.281-1.206-0.281h-0.971L255.128,43.687L255.128,43.687z"/>
	<path fill="#444444" d="M262.695,41.151c-0.706,0-1.264,0.235-1.672,0.706c-0.406,0.47-0.611,1.114-0.611,1.931
		c0,0.841,0.195,1.491,0.591,1.949c0.394,0.459,0.956,0.688,1.685,0.688c0.448,0,0.959-0.081,1.535-0.242v0.655
		c-0.445,0.167-0.996,0.25-1.646,0.25c-0.946,0-1.678-0.287-2.191-0.861c-0.514-0.574-0.771-1.39-0.771-2.448
		c0-0.662,0.124-1.242,0.372-1.74c0.247-0.498,0.604-0.882,1.073-1.151c0.467-0.27,1.017-0.404,1.649-0.404
		c0.674,0,1.263,0.123,1.767,0.369l-0.314,0.642C263.668,41.265,263.182,41.151,262.695,41.151z"/>
	<path fill="#444444" d="M270.5,47h-0.747v-3.023h-3.384V47h-0.747v-6.425h0.747v2.733h3.384v-2.733h0.747V47z"/>
</g>
<g>
	<path fill="#444444" d="M152.363,93h-0.745v-5.761h-2.035v-0.664h4.814v0.664h-2.035L152.363,93L152.363,93z"/>
	<path fill="#444444" d="M160.941,89.779c0,1.028-0.26,1.837-0.778,2.426c-0.521,0.589-1.243,0.883-2.168,0.883
		c-0.946,0-1.678-0.289-2.191-0.868c-0.514-0.578-0.771-1.395-0.771-2.45c0-1.046,0.259-1.857,0.772-2.432
		c0.516-0.576,1.248-0.864,2.197-0.864c0.923,0,1.644,0.293,2.162,0.879C160.681,87.939,160.941,88.748,160.941,89.779z
		 M155.821,89.779c0,0.87,0.187,1.53,0.558,1.98c0.37,0.45,0.909,0.674,1.615,0.674c0.712,0,1.25-0.224,1.611-0.672
		c0.363-0.448,0.545-1.109,0.545-1.982c0-0.864-0.181-1.52-0.543-1.966c-0.36-0.446-0.896-0.67-1.604-0.67
		c-0.712,0-1.253,0.225-1.624,0.674C156.006,88.267,155.821,88.92,155.821,89.779z"/>
	<path fill="#444444" d="M166.447,88.447c0,0.65-0.222,1.151-0.666,1.501c-0.441,0.35-1.077,0.525-1.903,0.525h-0.756V93h-0.747
		v-6.425h1.666C165.645,86.575,166.447,87.199,166.447,88.447z M163.121,89.832h0.672c0.662,0,1.141-0.107,1.437-0.321
		c0.296-0.214,0.444-0.557,0.444-1.028c0-0.425-0.139-0.741-0.417-0.949s-0.712-0.312-1.301-0.312h-0.835V89.832L163.121,89.832z"/>
	<path fill="#444444" d="M167.278,90.921v-0.668h2.158v0.668H167.278z"/>
	<path fill="#444444" d="M174.727,93l-0.8-2.043h-2.575L170.561,93h-0.756l2.54-6.451h0.628L175.5,93H174.727z M173.694,90.284
		l-0.747-1.991c-0.097-0.252-0.194-0.561-0.299-0.927c-0.063,0.281-0.155,0.59-0.275,0.927l-0.756,1.991H173.694z"/>
</g>
<g>
	<path fill="#444444" d="M152.294,121h-0.747v-5.761h-2.035v-0.664h4.816v0.664h-2.035L152.294,121L152.294,121z"/>
	<path fill="#444444" d="M160.873,117.779c0,1.028-0.262,1.837-0.78,2.426c-0.521,0.589-1.243,0.883-2.168,0.883
		c-0.946,0-1.676-0.289-2.191-0.868c-0.514-0.578-0.771-1.395-0.771-2.45c0-1.046,0.258-1.857,0.771-2.432
		c0.518-0.576,1.248-0.864,2.197-0.864c0.923,0,1.646,0.293,2.162,0.879S160.873,116.748,160.873,117.779z M155.753,117.779
		c0,0.87,0.185,1.53,0.556,1.98c0.37,0.45,0.909,0.674,1.615,0.674c0.712,0,1.25-0.224,1.613-0.672
		c0.361-0.448,0.545-1.109,0.545-1.982c0-0.864-0.183-1.52-0.543-1.966c-0.362-0.446-0.897-0.67-1.606-0.67
		c-0.712,0-1.253,0.225-1.624,0.674C155.938,116.267,155.753,116.92,155.753,117.779z"/>
	<path fill="#444444" d="M166.379,116.447c0,0.65-0.222,1.151-0.666,1.501c-0.443,0.35-1.079,0.525-1.905,0.525h-0.756V121h-0.747
		v-6.425h1.666C165.576,114.575,166.379,115.199,166.379,116.447z M163.052,117.832h0.672c0.662,0,1.143-0.107,1.438-0.321
		c0.296-0.214,0.442-0.557,0.442-1.028c0-0.425-0.139-0.741-0.417-0.949c-0.276-0.208-0.712-0.312-1.301-0.312h-0.835V117.832
		L163.052,117.832z"/>
	<path fill="#444444" d="M167.209,118.921v-0.668h2.158v0.668H167.209z"/>
	<path fill="#444444" d="M170.62,114.575h1.813c0.854,0,1.469,0.127,1.852,0.382c0.381,0.255,0.569,0.658,0.569,1.208
		c0,0.381-0.104,0.695-0.317,0.942c-0.212,0.248-0.522,0.408-0.931,0.481v0.044c0.978,0.167,1.463,0.68,1.463,1.538
		c0,0.574-0.192,1.022-0.582,1.345c-0.389,0.322-0.931,0.483-1.628,0.483h-2.239V114.575z M171.367,117.326h1.229
		c0.527,0,0.907-0.083,1.138-0.248c0.231-0.165,0.349-0.445,0.349-0.837c0-0.36-0.129-0.62-0.389-0.78
		c-0.258-0.16-0.668-0.24-1.229-0.24h-1.099L171.367,117.326L171.367,117.326z M171.367,117.959v2.404h1.34
		c0.519,0,0.909-0.1,1.171-0.301c0.262-0.2,0.394-0.515,0.394-0.942c0-0.398-0.134-0.691-0.4-0.879
		c-0.27-0.188-0.678-0.281-1.226-0.281L171.367,117.959L171.367,117.959z"/>
</g>
<g id="top-b_1_" opacity="0.1">
	<rect x="30" y="133" fill="#777777" width="250" height="22"/>
</g>
<g>
	<path fill="#444444" d="M144.585,203.563c-0.706,0-1.265,0.231-1.672,0.707c-0.408,0.47-0.613,1.109-0.613,1.932
		c0,0.841,0.197,1.49,0.591,1.947c0.396,0.459,0.956,0.688,1.687,0.688c0.446,0,0.959-0.081,1.532-0.239v0.652
		c-0.443,0.167-0.994,0.25-1.646,0.25c-0.946,0-1.676-0.287-2.191-0.859c-0.514-0.574-0.771-1.392-0.771-2.447
		c0-0.662,0.124-1.239,0.372-1.737c0.247-0.498,0.604-0.886,1.07-1.149c0.469-0.271,1.019-0.402,1.65-0.402
		c0.674,0,1.263,0.123,1.767,0.369l-0.314,0.644C145.558,203.678,145.071,203.563,144.585,203.563z"/>
	<path fill="#444444" d="M153.088,206.191c0,1.022-0.26,1.836-0.78,2.426c-0.52,0.589-1.243,0.883-2.168,0.883
		c-0.946,0-1.676-0.289-2.189-0.867c-0.515-0.578-0.771-1.396-0.771-2.451c0-1.045,0.258-1.854,0.773-2.432
		c0.516-0.576,1.248-0.863,2.195-0.863c0.923,0,1.646,0.293,2.162,0.879C152.828,204.352,153.088,205.16,153.088,206.191z
		 M147.969,206.191c0,0.869,0.185,1.529,0.556,1.979c0.37,0.45,0.909,0.676,1.615,0.676c0.712,0,1.25-0.226,1.613-0.674
		c0.363-0.447,0.545-1.107,0.545-1.98c0-0.86-0.181-1.521-0.543-1.967c-0.362-0.445-0.897-0.67-1.606-0.67
		c-0.712,0-1.253,0.229-1.624,0.674C148.154,204.68,147.969,205.332,147.969,206.191z"/>
	<path fill="#444444" d="M159.54,209.412h-0.854l-3.511-5.393h-0.035c0.047,0.633,0.07,1.213,0.07,1.735v3.652h-0.69v-6.429h0.844
		l3.504,5.369h0.033c-0.006-0.078-0.019-0.334-0.04-0.764c-0.021-0.43-0.026-0.736-0.021-0.92v-3.688h0.699L159.54,209.412
		L159.54,209.412z"/>
	<path fill="#444444" d="M163.284,209.412h-0.747v-5.762h-2.035v-0.664h4.814v0.664h-2.033L163.284,209.412L163.284,209.412z"/>
	<path fill="#444444" d="M169.867,209.412h-3.582v-6.426h3.582v0.664h-2.834v2.07h2.661v0.654h-2.661v2.364h2.834V209.412z"/>
	<path fill="#444444" d="M176.309,209.412h-0.853l-3.513-5.393h-0.033c0.047,0.633,0.068,1.213,0.068,1.735v3.652h-0.688v-6.429
		h0.844l3.502,5.369h0.035c-0.006-0.078-0.021-0.334-0.04-0.764c-0.021-0.43-0.028-0.736-0.022-0.92v-3.688h0.699L176.309,209.412
		L176.309,209.412z"/>
	<path fill="#444444" d="M180.053,209.412h-0.747v-5.762h-2.035v-0.664h4.817v0.664h-2.035V209.412z"/>
</g>
<g>
	<path fill="#444444" d="M137.791,292.575h1.813c0.854,0,1.471,0.128,1.852,0.382c0.381,0.256,0.569,0.658,0.569,1.209
		c0,0.381-0.104,0.695-0.317,0.941c-0.212,0.248-0.522,0.408-0.931,0.479v0.044c0.978,0.167,1.465,0.683,1.465,1.538
		c0,0.574-0.194,1.021-0.582,1.348c-0.391,0.319-0.933,0.48-1.628,0.48h-2.241V292.575L137.791,292.575z M138.538,295.326h1.229
		c0.527,0,0.907-0.082,1.138-0.248c0.231-0.166,0.349-0.445,0.349-0.838c0-0.359-0.129-0.619-0.387-0.779
		c-0.26-0.16-0.67-0.24-1.23-0.24h-1.099L138.538,295.326L138.538,295.326z M138.538,295.959v2.404h1.34
		c0.519,0,0.909-0.102,1.171-0.303c0.262-0.199,0.394-0.52,0.394-0.941c0-0.398-0.134-0.691-0.4-0.879
		c-0.27-0.188-0.678-0.281-1.226-0.281H138.538L138.538,295.959z"/>
	<path fill="#444444" d="M149.199,295.779c0,1.027-0.262,1.836-0.78,2.426c-0.521,0.588-1.243,0.883-2.168,0.883
		c-0.946,0-1.676-0.289-2.191-0.868c-0.514-0.577-0.771-1.396-0.771-2.45c0-1.045,0.258-1.854,0.771-2.432
		c0.518-0.576,1.248-0.863,2.197-0.863c0.923,0,1.644,0.293,2.162,0.879S149.199,294.748,149.199,295.779z M144.079,295.779
		c0,0.869,0.185,1.529,0.556,1.979c0.37,0.45,0.909,0.676,1.615,0.676c0.712,0,1.25-0.226,1.611-0.674
		c0.363-0.447,0.547-1.107,0.547-1.98c0-0.86-0.183-1.521-0.545-1.967c-0.36-0.442-0.896-0.67-1.604-0.67
		c-0.712,0-1.253,0.229-1.624,0.674C144.264,294.268,144.079,294.92,144.079,295.779z"/>
	<path fill="#444444" d="M152.609,299h-0.747v-5.762h-2.033v-0.663h4.814v0.663h-2.035L152.609,299L152.609,299z"/>
	<path fill="#444444" d="M157.588,299h-0.747v-5.762h-2.035v-0.663h4.816v0.663h-2.035L157.588,299L157.588,299z"/>
	<path fill="#444444" d="M166.166,295.779c0,1.027-0.262,1.836-0.78,2.426c-0.52,0.588-1.243,0.883-2.168,0.883
		c-0.946,0-1.676-0.289-2.191-0.868c-0.514-0.577-0.771-1.396-0.771-2.45c0-1.045,0.258-1.854,0.771-2.432
		c0.518-0.576,1.248-0.863,2.197-0.863c0.923,0,1.646,0.293,2.162,0.879C165.906,293.939,166.166,294.748,166.166,295.779z
		 M161.046,295.779c0,0.869,0.185,1.529,0.556,1.979c0.37,0.45,0.909,0.676,1.615,0.676c0.712,0,1.25-0.226,1.613-0.674
		c0.361-0.447,0.545-1.107,0.545-1.98c0-0.86-0.183-1.521-0.543-1.967c-0.362-0.442-0.897-0.67-1.606-0.67
		c-0.712,0-1.253,0.229-1.624,0.674C161.231,294.268,161.046,294.92,161.046,295.779z"/>
	<path fill="#444444" d="M170.442,299l-2.18-5.695h-0.035c0.041,0.451,0.063,0.987,0.063,1.608V299h-0.69v-6.425h1.125l2.035,5.3
		h0.035l2.052-5.3h1.116V299h-0.747v-4.141c0-0.479,0.021-0.989,0.062-1.547h-0.033l-2.2,5.688H170.442z"/>
	<path fill="#444444" d="M175.21,296.922v-0.668h2.158v0.668H175.21z"/>
	<path fill="#444444" d="M178.62,292.575h1.813c0.854,0,1.469,0.128,1.852,0.382c0.381,0.256,0.569,0.658,0.569,1.209
		c0,0.381-0.104,0.695-0.317,0.941c-0.212,0.248-0.522,0.408-0.931,0.479v0.044c0.978,0.167,1.463,0.683,1.463,1.538
		c0,0.574-0.192,1.021-0.582,1.348c-0.389,0.319-0.931,0.48-1.628,0.48h-2.239V292.575z M179.367,295.326h1.229
		c0.527,0,0.907-0.082,1.138-0.248c0.231-0.166,0.349-0.445,0.349-0.838c0-0.359-0.129-0.619-0.389-0.779
		c-0.258-0.16-0.668-0.24-1.229-0.24h-1.099L179.367,295.326L179.367,295.326z M179.367,295.959v2.404h1.34
		c0.519,0,0.909-0.102,1.171-0.303c0.262-0.199,0.394-0.52,0.394-0.941c0-0.398-0.134-0.691-0.4-0.879
		c-0.27-0.188-0.678-0.281-1.226-0.281H179.367L179.367,295.959z"/>
</g>
<g>
	<path fill="#444444" d="M137.858,265.575h1.815c0.853,0,1.469,0.128,1.85,0.382c0.381,0.256,0.571,0.658,0.571,1.209
		c0,0.381-0.106,0.695-0.319,0.941c-0.212,0.248-0.521,0.408-0.929,0.479v0.044c0.976,0.167,1.463,0.683,1.463,1.538
		c0,0.574-0.193,1.021-0.582,1.348c-0.389,0.319-0.931,0.48-1.628,0.48h-2.241V265.575z M138.605,268.326h1.23
		c0.525,0,0.907-0.082,1.138-0.248c0.231-0.166,0.347-0.445,0.347-0.838c0-0.359-0.129-0.619-0.387-0.779s-0.668-0.24-1.229-0.24
		h-1.101L138.605,268.326L138.605,268.326z M138.605,268.959v2.404h1.34c0.521,0,0.909-0.104,1.173-0.303
		c0.262-0.199,0.394-0.52,0.394-0.941c0-0.398-0.134-0.691-0.402-0.879c-0.268-0.188-0.676-0.281-1.224-0.281H138.605
		L138.605,268.959z"/>
	<path fill="#444444" d="M149.267,268.779c0,1.027-0.26,1.836-0.78,2.426c-0.52,0.588-1.241,0.883-2.168,0.883
		c-0.944,0-1.676-0.289-2.189-0.867c-0.515-0.578-0.771-1.396-0.771-2.451c0-1.045,0.259-1.854,0.773-2.432
		c0.516-0.576,1.248-0.863,2.197-0.863c0.923,0,1.644,0.293,2.16,0.879C149.007,266.939,149.267,267.748,149.267,268.779z
		 M144.147,268.779c0,0.869,0.187,1.529,0.558,1.979c0.369,0.45,0.907,0.676,1.613,0.676c0.712,0,1.25-0.226,1.613-0.674
		c0.363-0.447,0.545-1.107,0.545-1.979c0-0.865-0.181-1.521-0.543-1.969c-0.362-0.445-0.896-0.67-1.604-0.67
		c-0.713,0-1.253,0.227-1.624,0.674C144.332,267.268,144.147,267.92,144.147,268.779z"/>
	<path fill="#444444" d="M152.677,272h-0.747v-5.762h-2.035v-0.663h4.816v0.663h-2.035L152.677,272L152.677,272z"/>
	<path fill="#444444" d="M157.656,272h-0.745v-5.762h-2.035v-0.663h4.814v0.663h-2.035L157.656,272L157.656,272z"/>
	<path fill="#444444" d="M166.234,268.779c0,1.027-0.26,1.836-0.778,2.426c-0.521,0.588-1.243,0.883-2.168,0.883
		c-0.946,0-1.678-0.289-2.191-0.867s-0.771-1.396-0.771-2.451c0-1.045,0.258-1.854,0.771-2.432c0.516-0.576,1.248-0.863,2.197-0.863
		c0.923,0,1.644,0.293,2.162,0.879C165.974,266.939,166.234,267.748,166.234,268.779z M161.114,268.779
		c0,0.869,0.187,1.529,0.558,1.979c0.37,0.45,0.909,0.676,1.615,0.676c0.712,0,1.25-0.226,1.611-0.674
		c0.363-0.447,0.545-1.107,0.545-1.979c0-0.865-0.181-1.521-0.543-1.969c-0.36-0.445-0.896-0.67-1.604-0.67
		c-0.712,0-1.253,0.227-1.624,0.674C161.299,267.268,161.114,267.92,161.114,268.779z"/>
	<path fill="#444444" d="M170.51,272l-2.18-5.695h-0.035c0.041,0.451,0.062,0.987,0.062,1.608V272h-0.688v-6.425h1.125l2.035,5.3
		h0.033l2.054-5.3h1.114V272h-0.745v-4.141c0-0.479,0.021-0.989,0.062-1.547h-0.035L171.112,272H170.51z"/>
	<path fill="#444444" d="M175.278,269.922v-0.668h2.158v0.668H175.278z"/>
	<path fill="#444444" d="M182.727,272l-0.8-2.043h-2.575L178.561,272h-0.756l2.54-6.451h0.628L183.5,272H182.727z M181.694,269.284
		l-0.747-1.991c-0.097-0.252-0.194-0.561-0.299-0.927c-0.063,0.28-0.155,0.591-0.275,0.927l-0.756,1.991H181.694z"/>
</g>
<g>
	<path fill="#444444" d="M144.763,323h-0.747v-6.425h3.582v0.663h-2.834v2.352h2.663v0.664h-2.663L144.763,323L144.763,323z"/>
	<path fill="#444444" d="M154.237,319.779c0,1.027-0.26,1.836-0.778,2.426c-0.521,0.588-1.243,0.883-2.168,0.883
		c-0.946,0-1.678-0.289-2.191-0.868c-0.514-0.577-0.771-1.396-0.771-2.45c0-1.045,0.258-1.854,0.771-2.432
		c0.518-0.576,1.248-0.863,2.197-0.863c0.923,0,1.644,0.293,2.162,0.879C153.977,317.939,154.237,318.748,154.237,319.779z
		 M149.118,319.779c0,0.869,0.185,1.529,0.556,1.979c0.37,0.45,0.909,0.676,1.615,0.676c0.712,0,1.25-0.226,1.611-0.674
		c0.363-0.447,0.545-1.107,0.545-1.98c0-0.86-0.181-1.521-0.543-1.967c-0.36-0.442-0.896-0.67-1.604-0.67
		c-0.712,0-1.253,0.229-1.624,0.674C149.303,318.268,149.118,318.92,149.118,319.779z"/>
	<path fill="#444444" d="M161.247,319.779c0,1.027-0.262,1.836-0.78,2.426c-0.521,0.588-1.243,0.883-2.168,0.883
		c-0.946,0-1.676-0.289-2.191-0.868c-0.514-0.577-0.771-1.396-0.771-2.45c0-1.045,0.258-1.854,0.771-2.432
		c0.518-0.576,1.248-0.863,2.197-0.863c0.923,0,1.646,0.293,2.162,0.879S161.247,318.748,161.247,319.779z M156.127,319.779
		c0,0.869,0.185,1.529,0.556,1.979c0.37,0.45,0.909,0.676,1.615,0.676c0.712,0,1.25-0.226,1.613-0.674
		c0.361-0.447,0.545-1.107,0.545-1.98c0-0.86-0.183-1.521-0.543-1.967c-0.362-0.442-0.897-0.67-1.606-0.67
		c-0.712,0-1.253,0.229-1.624,0.674C156.312,318.268,156.127,318.92,156.127,319.779z"/>
	<path fill="#444444" d="M164.657,323h-0.747v-5.762h-2.035v-0.663h4.814v0.663h-2.035V323H164.657z"/>
	<path fill="#444444" d="M171.24,323h-3.582v-6.425h3.582v0.663h-2.836v2.07h2.663v0.653h-2.663v2.364h2.836V323z"/>
	<path fill="#444444" d="M173.411,320.328V323h-0.747v-6.425h1.762c0.788,0,1.37,0.151,1.747,0.452
		c0.376,0.303,0.563,0.756,0.563,1.363c0,0.85-0.431,1.424-1.292,1.723L177.19,323h-0.883l-1.556-2.672H173.411z M173.411,319.688
		h1.022c0.527,0,0.914-0.104,1.16-0.312c0.246-0.209,0.369-0.521,0.369-0.938c0-0.429-0.125-0.729-0.376-0.918
		c-0.25-0.188-0.652-0.281-1.206-0.281h-0.971L173.411,319.688L173.411,319.688z"/>
</g>
<g>
	<path fill="#444444" d="M44.703,224.457c0.563,0,1.006,0.205,1.321,0.615c0.317,0.41,0.476,0.967,0.476,1.67
		c0,0.762-0.1,1.348-0.294,1.758h-0.723c0.111-0.264,0.199-0.551,0.266-0.861c0.063-0.31,0.097-0.617,0.097-0.923
		c0-0.498-0.094-0.873-0.284-1.125c-0.188-0.252-0.452-0.378-0.789-0.378c-0.223,0-0.403,0.045-0.547,0.135
		c-0.142,0.09-0.271,0.238-0.393,0.447c-0.12,0.21-0.256,0.528-0.409,0.956c-0.214,0.599-0.467,1.024-0.76,1.281
		c-0.293,0.256-0.677,0.384-1.147,0.384c-0.495,0-0.889-0.186-1.182-0.559c-0.293-0.371-0.439-0.863-0.439-1.479
		c0-0.64,0.117-1.229,0.354-1.762l0.648,0.229c-0.223,0.528-0.334,1.047-0.334,1.547c0,0.396,0.085,0.705,0.255,0.931
		c0.17,0.222,0.406,0.334,0.708,0.334c0.225,0,0.405-0.041,0.549-0.123c0.143-0.082,0.271-0.224,0.392-0.416
		c0.118-0.194,0.25-0.493,0.393-0.896c0.24-0.677,0.498-1.14,0.773-1.394C43.906,224.584,44.263,224.457,44.703,224.457z"/>
	<path fill="#444444" d="M46.412,223.143h-6.427v-0.746h6.427V223.143z"/>
	<path fill="#444444" d="M43.138,215.505c1.063,0,1.872,0.288,2.432,0.863c0.563,0.575,0.844,1.403,0.844,2.485v1.774h-6.427v-1.969
		c0-0.999,0.277-1.771,0.831-2.329C41.372,215.781,42.145,215.505,43.138,215.505z M43.165,216.296c-0.838,0-1.471,0.21-1.896,0.631
		s-0.637,1.046-0.637,1.874v1.086h5.133v-0.91c0-0.892-0.219-1.561-0.657-2.009C44.672,216.52,44.023,216.296,43.165,216.296z"/>
	<path fill="#444444" d="M46.412,210.491v3.582h-6.427v-3.582h0.664v2.834h2.07v-2.663h0.659v2.663h2.364v-2.834H46.412z"/>
	<path fill="#444444" d="M39.987,209.066v-1.814c0-0.854,0.127-1.469,0.384-1.85c0.255-0.381,0.656-0.571,1.208-0.571
		c0.381,0,0.693,0.106,0.94,0.319c0.248,0.211,0.408,0.521,0.481,0.929h0.044c0.167-0.976,0.68-1.463,1.538-1.463
		c0.572,0,1.021,0.194,1.345,0.582c0.322,0.389,0.483,0.931,0.483,1.628v2.24H39.987L39.987,209.066z M42.738,208.32v-1.23
		c0-0.527-0.083-0.906-0.246-1.138c-0.165-0.231-0.445-0.347-0.839-0.347c-0.358,0-0.618,0.129-0.778,0.387s-0.24,0.668-0.24,1.23
		v1.098H42.738L42.738,208.32z M43.371,208.32h2.402v-1.34c0-0.521-0.1-0.91-0.301-1.172c-0.2-0.267-0.515-0.396-0.94-0.396
		c-0.398,0-0.691,0.134-0.881,0.398c-0.188,0.271-0.279,0.68-0.279,1.228L43.371,208.32L43.371,208.32z"/>
	<path fill="#444444" d="M46.412,199.197l-2.043,0.8v2.575l2.043,0.791v0.756l-6.451-2.54v-0.628l6.451-2.527V199.197z
		 M43.696,200.23l-1.989,0.746c-0.252,0.098-0.563,0.191-0.929,0.299c0.281,0.062,0.592,0.158,0.929,0.272l1.989,0.761V200.23z"/>
	<path fill="#444444" d="M43.74,196.793h2.672v0.747h-6.427v-1.763c0-0.787,0.151-1.369,0.453-1.746
		c0.304-0.377,0.756-0.564,1.362-0.564c0.85,0,1.424,0.432,1.723,1.292l2.889-1.745v0.883l-2.672,1.562V196.793z M43.099,196.793
		v-1.023c0-0.522-0.104-0.914-0.313-1.16c-0.209-0.241-0.523-0.364-0.942-0.364c-0.425,0-0.731,0.125-0.918,0.376
		c-0.188,0.25-0.281,0.646-0.281,1.206v0.971L43.099,196.793L43.099,196.793z"/>
	<path fill="#444444" d="M44.333,192.491h-0.668v-2.158h0.668V192.491z"/>
	<path fill="#444444" d="M46.412,185.042l-2.043,0.8v2.575l2.043,0.791v0.756l-6.451-2.54v-0.628l6.451-2.526V185.042z
		 M43.696,186.075l-1.989,0.747c-0.252,0.097-0.563,0.195-0.929,0.299c0.281,0.064,0.592,0.156,0.929,0.277l1.989,0.756V186.075z"/>
</g>
<rect id="sidebar-a__x28_left_x29__1_" x="0" y="13.013" opacity="0.05" enable-background="new    " width="26" height="314.987"/>
<g>
	<path fill="#444444" d="M76.307,224.328c0.565,0,1.006,0.205,1.323,0.615c0.315,0.41,0.474,0.967,0.474,1.67
		c0,0.762-0.098,1.348-0.294,1.758h-0.721c0.111-0.264,0.199-0.551,0.264-0.861c0.065-0.31,0.099-0.617,0.099-0.923
		c0-0.498-0.096-0.873-0.284-1.125s-0.452-0.378-0.789-0.378c-0.225,0-0.405,0.045-0.547,0.134
		c-0.144,0.091-0.273,0.239-0.395,0.448c-0.12,0.21-0.256,0.527-0.409,0.956c-0.214,0.599-0.467,1.024-0.76,1.28
		c-0.293,0.257-0.675,0.385-1.146,0.385c-0.495,0-0.891-0.186-1.184-0.559c-0.293-0.371-0.438-0.863-0.438-1.479
		c0-0.642,0.117-1.229,0.352-1.765l0.65,0.23c-0.225,0.53-0.334,1.049-0.334,1.549c0,0.396,0.085,0.703,0.255,0.928
		s0.406,0.334,0.708,0.334c0.223,0,0.405-0.041,0.547-0.121c0.143-0.082,0.272-0.223,0.392-0.416
		c0.118-0.193,0.25-0.492,0.395-0.896c0.24-0.674,0.498-1.137,0.771-1.391C75.51,224.455,75.867,224.328,76.307,224.328z"/>
	<path fill="#444444" d="M78.016,223.014h-6.425v-0.746h6.425V223.014z"/>
	<path fill="#444444" d="M74.742,215.376c1.061,0,1.87,0.288,2.432,0.863s0.842,1.403,0.842,2.485v1.774h-6.425v-1.97
		c0-0.998,0.277-1.774,0.831-2.328C72.976,215.652,73.749,215.376,74.742,215.376z M74.769,216.167c-0.838,0-1.469,0.21-1.894,0.631
		s-0.639,1.045-0.639,1.874v1.085h5.135v-0.909c0-0.892-0.221-1.561-0.657-2.009C76.276,216.391,75.627,216.167,74.769,216.167z"/>
	<path fill="#444444" d="M78.016,210.361v3.582h-6.425v-3.582h0.664v2.834h2.07v-2.662h0.657v2.662h2.364v-2.834H78.016z"/>
	<path fill="#444444" d="M71.591,208.938v-1.812c0-0.854,0.127-1.469,0.382-1.853c0.255-0.381,0.658-0.568,1.208-0.568
		c0.381,0,0.695,0.104,0.942,0.316c0.248,0.211,0.406,0.521,0.479,0.932h0.044c0.167-0.979,0.682-1.467,1.538-1.467
		c0.574,0,1.022,0.195,1.345,0.582c0.322,0.393,0.483,0.935,0.483,1.632v2.237H71.591L71.591,208.938z M74.342,208.191v-1.23
		c0-0.527-0.083-0.906-0.248-1.138c-0.165-0.232-0.445-0.347-0.837-0.347c-0.36,0-0.62,0.129-0.78,0.387s-0.24,0.668-0.24,1.229v1.1
		H74.342L74.342,208.191z M74.975,208.191h2.404v-1.34c0-0.521-0.102-0.91-0.301-1.172c-0.2-0.267-0.517-0.396-0.942-0.396
		c-0.398,0-0.691,0.134-0.879,0.398c-0.188,0.271-0.281,0.676-0.281,1.228L74.975,208.191L74.975,208.191z"/>
	<path fill="#444444" d="M78.016,199.068l-2.043,0.8v2.575l2.043,0.791v0.756l-6.451-2.54v-0.628l6.451-2.527V199.068
		L78.016,199.068z M75.3,200.102l-1.991,0.746c-0.252,0.098-0.561,0.196-0.927,0.299c0.281,0.064,0.59,0.158,0.927,0.277
		l1.991,0.756V200.102z"/>
	<path fill="#444444" d="M75.344,196.664h2.672v0.747h-6.425v-1.763c0-0.787,0.151-1.369,0.453-1.746s0.756-0.564,1.36-0.564
		c0.852,0,1.426,0.432,1.725,1.292l2.887-1.745v0.883l-2.672,1.562V196.664z M74.703,196.664v-1.023c0-0.522-0.104-0.914-0.314-1.16
		c-0.209-0.246-0.521-0.369-0.942-0.369c-0.425,0-0.729,0.125-0.918,0.375c-0.188,0.25-0.279,0.652-0.279,1.207v0.976
		L74.703,196.664L74.703,196.664z"/>
	<path fill="#444444" d="M75.937,192.361h-0.668v-2.157h0.668V192.361z"/>
	<path fill="#444444" d="M71.591,188.952v-1.815c0-0.853,0.127-1.469,0.382-1.85s0.658-0.571,1.208-0.571
		c0.381,0,0.695,0.106,0.942,0.319c0.248,0.212,0.406,0.521,0.479,0.929h0.044c0.167-0.976,0.682-1.463,1.538-1.463
		c0.574,0,1.022,0.194,1.345,0.582c0.322,0.39,0.483,0.931,0.483,1.628v2.241H71.591z M74.342,188.205v-1.23
		c0-0.524-0.083-0.906-0.248-1.138s-0.445-0.347-0.837-0.347c-0.36,0-0.62,0.129-0.78,0.387s-0.24,0.668-0.24,1.23v1.099
		L74.342,188.205L74.342,188.205z M74.975,188.205h2.404v-1.34c0-0.52-0.102-0.909-0.301-1.172c-0.2-0.262-0.517-0.395-0.942-0.395
		c-0.398,0-0.691,0.135-0.879,0.402c-0.188,0.268-0.281,0.676-0.281,1.224L74.975,188.205L74.975,188.205z"/>
</g>
<g>
	<path fill="#444444" d="M238.308,225.457c0.565,0,1.006,0.205,1.323,0.615c0.315,0.41,0.475,0.967,0.475,1.67
		c0,0.762-0.098,1.348-0.294,1.758h-0.721c0.111-0.264,0.199-0.551,0.264-0.861c0.065-0.31,0.099-0.617,0.099-0.923
		c0-0.498-0.096-0.873-0.284-1.125s-0.452-0.378-0.789-0.378c-0.224,0-0.405,0.045-0.547,0.135c-0.144,0.09-0.273,0.238-0.395,0.447
		c-0.12,0.21-0.256,0.528-0.409,0.956c-0.214,0.599-0.467,1.024-0.76,1.281c-0.293,0.256-0.675,0.384-1.146,0.384
		c-0.495,0-0.891-0.186-1.184-0.559c-0.293-0.371-0.439-0.863-0.439-1.479c0-0.64,0.117-1.229,0.352-1.762l0.65,0.229
		c-0.225,0.528-0.334,1.045-0.334,1.547c0,0.396,0.085,0.705,0.255,0.931c0.17,0.222,0.406,0.334,0.708,0.334
		c0.223,0,0.405-0.041,0.547-0.123c0.144-0.082,0.272-0.224,0.392-0.416c0.118-0.194,0.25-0.493,0.395-0.896
		c0.24-0.676,0.498-1.14,0.771-1.394C237.511,225.584,237.868,225.457,238.308,225.457z"/>
	<path fill="#444444" d="M240.017,224.143h-6.425v-0.746h6.425V224.143z"/>
	<path fill="#444444" d="M236.743,216.505c1.061,0,1.87,0.288,2.432,0.863s0.842,1.403,0.842,2.485v1.774h-6.425v-1.969
		c0-0.999,0.277-1.771,0.831-2.329C234.977,216.781,235.75,216.505,236.743,216.505z M236.77,217.296
		c-0.838,0-1.469,0.21-1.894,0.631s-0.639,1.046-0.639,1.874v1.086h5.135v-0.91c0-0.892-0.221-1.561-0.657-2.009
		C238.277,217.52,237.628,217.296,236.77,217.296z"/>
	<path fill="#444444" d="M240.017,211.491v3.582h-6.425v-3.582h0.664v2.834h2.07v-2.663h0.657v2.663h2.364v-2.834H240.017z"/>
	<path fill="#444444" d="M233.592,210.066v-1.814c0-0.854,0.127-1.469,0.382-1.85s0.658-0.571,1.208-0.571
		c0.381,0,0.695,0.106,0.942,0.319c0.248,0.211,0.408,0.521,0.479,0.929h0.044c0.167-0.976,0.682-1.463,1.538-1.463
		c0.574,0,1.022,0.194,1.346,0.582c0.321,0.389,0.482,0.931,0.482,1.628v2.24H233.592L233.592,210.066z M236.343,209.32v-1.23
		c0-0.527-0.083-0.906-0.248-1.138s-0.445-0.347-0.837-0.347c-0.36,0-0.62,0.129-0.78,0.387s-0.24,0.668-0.24,1.23v1.098H236.343
		L236.343,209.32z M236.976,209.32h2.404v-1.34c0-0.521-0.102-0.91-0.301-1.172c-0.2-0.267-0.517-0.396-0.942-0.396
		c-0.398,0-0.691,0.134-0.879,0.398c-0.188,0.271-0.281,0.68-0.281,1.228L236.976,209.32L236.976,209.32z"/>
	<path fill="#444444" d="M240.017,200.197l-2.043,0.8v2.575l2.043,0.791v0.756l-6.451-2.54v-0.628l6.451-2.527V200.197z
		 M237.301,201.23l-1.991,0.746c-0.252,0.098-0.561,0.191-0.927,0.299c0.281,0.062,0.59,0.158,0.927,0.272l1.991,0.761V201.23z"/>
	<path fill="#444444" d="M237.345,197.793h2.672v0.747h-6.425v-1.763c0-0.787,0.151-1.369,0.453-1.746s0.756-0.564,1.362-0.564
		c0.85,0,1.424,0.432,1.723,1.292l2.887-1.745v0.883l-2.672,1.562V197.793z M236.704,197.793v-1.023c0-0.522-0.104-0.914-0.314-1.16
		c-0.209-0.241-0.521-0.364-0.942-0.364c-0.425,0-0.729,0.125-0.918,0.376c-0.188,0.25-0.279,0.646-0.279,1.206v0.971
		L236.704,197.793L236.704,197.793z"/>
	<path fill="#444444" d="M237.938,193.491h-0.668v-2.158h0.668V193.491z"/>
	<path fill="#444444" d="M240.017,186.042l-2.043,0.8v2.575l2.043,0.791v0.756l-6.451-2.54v-0.628l6.451-2.526V186.042z
		 M237.301,187.075l-1.991,0.747c-0.252,0.097-0.561,0.195-0.927,0.299c0.281,0.064,0.59,0.156,0.927,0.277l1.991,0.756V187.075z"/>
</g>
<g>
	<path fill="#444444" d="M269.702,225.327c0.563,0,1.007,0.205,1.321,0.614c0.315,0.41,0.477,0.968,0.477,1.67
		c0,0.763-0.102,1.349-0.295,1.759h-0.723c0.111-0.265,0.199-0.552,0.266-0.861c0.063-0.309,0.098-0.616,0.098-0.923
		c0-0.498-0.096-0.873-0.285-1.125c-0.188-0.252-0.451-0.378-0.787-0.378c-0.224,0-0.403,0.045-0.549,0.135
		c-0.141,0.091-0.271,0.238-0.393,0.447c-0.12,0.21-0.256,0.528-0.408,0.956c-0.215,0.6-0.468,1.023-0.761,1.281
		c-0.293,0.256-0.677,0.384-1.147,0.384c-0.494,0-0.889-0.187-1.182-0.56c-0.293-0.371-0.439-0.863-0.439-1.479
		c0-0.644,0.117-1.229,0.354-1.765l0.648,0.232c-0.224,0.528-0.334,1.045-0.334,1.547c0,0.396,0.084,0.705,0.254,0.926
		c0.17,0.227,0.406,0.334,0.709,0.334c0.225,0,0.404-0.039,0.547-0.121c0.145-0.08,0.271-0.221,0.394-0.416
		c0.118-0.191,0.25-0.49,0.394-0.895c0.24-0.675,0.498-1.139,0.772-1.393C268.904,225.454,269.262,225.327,269.702,225.327z"/>
	<path fill="#444444" d="M271.412,224.014h-6.428v-0.746h6.428V224.014z"/>
	<path fill="#444444" d="M268.137,216.375c1.063,0,1.872,0.288,2.434,0.863c0.563,0.574,0.844,1.402,0.844,2.484v1.775h-6.428
		v-1.971c0-0.998,0.277-1.773,0.832-2.327C266.372,216.65,267.145,216.375,268.137,216.375z M268.164,217.166
		c-0.838,0-1.471,0.21-1.896,0.631c-0.424,0.421-0.637,1.046-0.637,1.874v1.085h5.133v-0.908c0-0.893-0.219-1.562-0.656-2.01
		C269.67,217.393,269.021,217.166,268.164,217.166z"/>
	<path fill="#444444" d="M271.412,211.361v3.582h-6.428v-3.582h0.664v2.834h2.07v-2.663h0.659v2.663h2.365v-2.834H271.412z"/>
	<path fill="#444444" d="M264.986,209.938v-1.812c0-0.854,0.127-1.471,0.384-1.853c0.255-0.381,0.655-0.568,1.208-0.568
		c0.381,0,0.693,0.104,0.939,0.316c0.248,0.211,0.408,0.521,0.482,0.932h0.043c0.168-0.979,0.68-1.467,1.539-1.467
		c0.572,0,1.021,0.195,1.344,0.582c0.322,0.393,0.484,0.935,0.484,1.632v2.237H264.986L264.986,209.938z M267.736,209.189v-1.229
		c0-0.526-0.082-0.905-0.248-1.138c-0.162-0.231-0.442-0.348-0.836-0.348c-0.358,0-0.618,0.129-0.778,0.387
		c-0.16,0.259-0.24,0.668-0.24,1.229v1.1H267.736L267.736,209.189z M268.371,209.189h2.4v-1.34c0-0.521-0.101-0.91-0.301-1.176
		c-0.199-0.262-0.515-0.395-0.941-0.395c-0.396,0-0.689,0.135-0.879,0.398c-0.188,0.271-0.279,0.676-0.279,1.229V209.189z"/>
	<path fill="#444444" d="M271.412,200.066l-2.044,0.801v2.574l2.044,0.791v0.756l-6.452-2.539v-0.629l6.452-2.526V200.066z
		 M268.695,201.102l-1.988,0.746c-0.252,0.098-0.563,0.195-0.93,0.299c0.281,0.063,0.593,0.158,0.93,0.276l1.988,0.757V201.102z"/>
	<path fill="#444444" d="M268.74,197.663h2.673v0.747h-6.428v-1.764c0-0.787,0.152-1.369,0.453-1.746
		c0.305-0.377,0.756-0.563,1.362-0.563c0.851,0,1.425,0.433,1.724,1.292l2.89-1.745v0.884l-2.672,1.561L268.74,197.663
		L268.74,197.663z M268.098,197.663v-1.022c0-0.523-0.104-0.914-0.313-1.16s-0.523-0.369-0.942-0.369
		c-0.425,0-0.731,0.125-0.918,0.375c-0.188,0.25-0.28,0.652-0.28,1.207v0.975L268.098,197.663L268.098,197.663z"/>
	<path fill="#444444" d="M269.332,193.361h-0.668v-2.158h0.668V193.361z"/>
	<path fill="#444444" d="M264.986,189.951v-1.815c0-0.853,0.127-1.469,0.384-1.85c0.255-0.382,0.655-0.571,1.208-0.571
		c0.381,0,0.693,0.105,0.939,0.319c0.248,0.212,0.408,0.521,0.482,0.929h0.043c0.168-0.977,0.68-1.463,1.539-1.463
		c0.572,0,1.021,0.193,1.344,0.582c0.322,0.391,0.484,0.932,0.484,1.628v2.241H264.986z M267.736,189.204v-1.229
		c0-0.522-0.082-0.906-0.248-1.139c-0.162-0.23-0.442-0.348-0.836-0.348c-0.358,0-0.618,0.13-0.778,0.388s-0.24,0.668-0.24,1.229
		v1.1L267.736,189.204L267.736,189.204z M268.371,189.204h2.4v-1.34c0-0.521-0.101-0.909-0.301-1.171
		c-0.199-0.264-0.515-0.396-0.941-0.396c-0.396,0-0.689,0.134-0.879,0.401c-0.188,0.268-0.279,0.676-0.279,1.224V189.204z"/>
</g>
<g id="widget_layouts">
	<g id="equal_bg" opacity="0.1">
		<rect x="300" y="215" fill="#777777" width="260" height="27"/>
	</g>
	<g id="widget_2_" opacity="0.15">
		<rect x="354" y="220" width="64" height="17"/>
	</g>
	<g id="widget_1_" opacity="0.15">
		<rect x="423" y="220" width="63" height="17"/>
	</g>
	<g id="widget" opacity="0.15">
		<rect x="491" y="220" width="64" height="17"/>
	</g>
	<g id="double_bg" opacity="0.1">
		<rect x="300" y="301" fill="#777777" width="260" height="27"/>
	</g>
	<g id="widget_4_" opacity="0.15">
		<rect x="354" y="306" width="132" height="17"/>
	</g>
	<g id="widget_3_" opacity="0.15">
		<rect x="491" y="306" width="64" height="17"/>
	</g>
	<g id="stack_bg" opacity="0.1">
		<rect x="300" y="247" fill="#777777" width="260" height="49"/>
	</g>
	<g id="widget_5_" opacity="0.15">
		<rect x="354" y="252" width="201" height="17"/>
	</g>
	<g id="widget_6_" opacity="0.15">
		<rect x="354" y="274" width="201" height="17"/>
	</g>
	<g>
		<path fill="#444444" d="M309.375,204.876h-1.066l-1.871-6.214c-0.09-0.275-0.188-0.622-0.299-1.041
			c-0.109-0.419-0.168-0.671-0.172-0.755c-0.094,0.559-0.24,1.17-0.443,1.834l-1.813,6.176h-1.064l-2.471-9.278h1.145l1.469,5.73
			c0.201,0.804,0.354,1.531,0.441,2.184c0.112-0.771,0.281-1.531,0.508-2.271l1.664-5.646h1.146l1.743,5.691
			c0.201,0.652,0.375,1.396,0.518,2.222c0.079-0.601,0.229-1.329,0.456-2.192l1.46-5.719h1.146L309.375,204.876z"/>
		<path fill="#444444" d="M313.062,196.034c0-0.241,0.061-0.418,0.179-0.53c0.118-0.111,0.269-0.168,0.443-0.168
			c0.168,0,0.312,0.059,0.438,0.171c0.123,0.114,0.188,0.29,0.188,0.527c0,0.235-0.063,0.414-0.188,0.528
			c-0.122,0.117-0.271,0.177-0.438,0.177c-0.181,0-0.325-0.06-0.443-0.177S313.062,196.271,313.062,196.034z M314.204,204.876
			h-1.054v-6.957h1.054V204.876z"/>
		<path fill="#444444" d="M321.176,203.941h-0.06c-0.484,0.707-1.214,1.062-2.186,1.062c-0.907,0-1.616-0.312-2.123-0.935
			c-0.506-0.62-0.76-1.506-0.76-2.651s0.256-2.038,0.765-2.672c0.509-0.636,1.215-0.952,2.118-0.952c0.94,0,1.668,0.344,2.173,1.027
			h0.081l-0.045-0.502l-0.023-0.487V195h1.057v9.876h-0.855L321.176,203.941z M319.068,204.121c0.72,0,1.239-0.196,1.563-0.587
			c0.322-0.392,0.483-1.023,0.483-1.896v-0.227c0-0.982-0.163-1.688-0.491-2.107c-0.326-0.425-0.854-0.635-1.569-0.635
			c-0.615,0-1.091,0.24-1.419,0.725c-0.325,0.479-0.489,1.154-0.489,2.035c0,0.889,0.162,1.56,0.486,2.012
			C317.959,203.895,318.438,204.121,319.068,204.121z"/>
		<path fill="#444444" d="M330.1,197.919v0.667l-1.286,0.15c0.116,0.146,0.227,0.344,0.315,0.582
			c0.094,0.238,0.141,0.51,0.141,0.811c0,0.682-0.229,1.227-0.698,1.631c-0.465,0.406-1.104,0.609-1.914,0.609
			c-0.207,0-0.4-0.018-0.586-0.053c-0.446,0.238-0.674,0.535-0.674,0.896c0,0.188,0.077,0.331,0.233,0.422
			c0.155,0.093,0.426,0.14,0.808,0.14h1.23c0.753,0,1.332,0.158,1.733,0.479c0.403,0.314,0.604,0.775,0.604,1.384
			c0,0.771-0.312,1.356-0.93,1.765c-0.615,0.4-1.521,0.604-2.701,0.604c-0.91,0-1.608-0.169-2.104-0.508
			c-0.491-0.342-0.737-0.816-0.737-1.438c0-0.426,0.137-0.789,0.405-1.101c0.271-0.312,0.648-0.521,1.146-0.628
			c-0.18-0.081-0.327-0.205-0.446-0.375c-0.121-0.169-0.185-0.366-0.185-0.591c0-0.257,0.064-0.479,0.203-0.666
			c0.138-0.191,0.352-0.375,0.643-0.556c-0.357-0.146-0.65-0.396-0.879-0.754c-0.229-0.354-0.342-0.765-0.342-1.222
			c0-0.762,0.229-1.351,0.688-1.761c0.457-0.413,1.104-0.619,1.941-0.619c0.362,0,0.689,0.042,0.98,0.127L330.1,197.919
			L330.1,197.919z M324.553,206.044c0,0.376,0.158,0.662,0.478,0.856c0.317,0.19,0.771,0.291,1.362,0.291
			c0.886,0,1.541-0.131,1.966-0.396c0.429-0.264,0.644-0.623,0.644-1.074c0-0.378-0.117-0.64-0.354-0.783
			c-0.229-0.146-0.671-0.222-1.312-0.222h-1.267c-0.479,0-0.853,0.114-1.115,0.345C324.688,205.289,324.553,205.617,324.553,206.044
			z M325.121,200.146c0,0.482,0.14,0.854,0.413,1.104c0.273,0.249,0.657,0.375,1.148,0.375c1.022,0,1.541-0.5,1.541-1.498
			c0-1.045-0.521-1.566-1.563-1.566c-0.493,0-0.876,0.133-1.146,0.398C325.255,199.229,325.121,199.622,325.121,200.146z"/>
		<path fill="#444444" d="M334.469,205.003c-1.028,0-1.84-0.312-2.437-0.938c-0.595-0.625-0.893-1.496-0.893-2.604
			c0-1.122,0.271-2.017,0.828-2.672c0.552-0.66,1.293-0.99,2.226-0.99c0.871,0,1.563,0.287,2.067,0.856
			c0.509,0.572,0.763,1.33,0.763,2.271v0.667h-4.791c0.021,0.817,0.229,1.438,0.616,1.86c0.393,0.423,0.938,0.635,1.651,0.635
			c0.75,0,1.488-0.154,2.227-0.47v0.938c-0.373,0.158-0.729,0.273-1.063,0.346C335.339,204.968,334.938,205.003,334.469,205.003z
			 M334.184,198.674c-0.562,0-1.004,0.184-1.336,0.547s-0.528,0.867-0.588,1.512h3.637c0-0.666-0.146-1.174-0.44-1.523
			C335.156,198.852,334.732,198.674,334.184,198.674z"/>
		<path fill="#444444" d="M341.068,204.133c0.188,0,0.366-0.014,0.541-0.042c0.173-0.026,0.313-0.056,0.411-0.085v0.807
			c-0.114,0.06-0.282,0.104-0.506,0.142c-0.226,0.032-0.424,0.054-0.604,0.054c-1.348,0-2.021-0.709-2.021-2.126v-4.144h-0.99
			v-0.508l0.996-0.438l0.441-1.482h0.607v1.609h2.021v0.816h-2.021v4.097c0,0.419,0.102,0.74,0.298,0.965
			C340.448,204.021,340.723,204.133,341.068,204.133z"/>
		<path fill="#444444" d="M346.947,204.876v-9.278h1.08v8.303h4.094v0.979L346.947,204.876L346.947,204.876z"/>
		<path fill="#444444" d="M357.814,204.876l-0.214-0.99h-0.051c-0.349,0.438-0.688,0.731-1.037,0.888
			c-0.345,0.152-0.771,0.229-1.29,0.229c-0.688,0-1.229-0.178-1.623-0.532c-0.395-0.354-0.586-0.861-0.586-1.518
			c0-1.405,1.123-2.143,3.368-2.209l1.186-0.038v-0.433c0-0.547-0.118-0.948-0.354-1.209c-0.231-0.26-0.606-0.395-1.127-0.395
			c-0.58,0-1.234,0.182-1.97,0.533l-0.322-0.811c0.345-0.187,0.72-0.332,1.127-0.438c0.406-0.104,0.816-0.158,1.229-0.158
			c0.829,0,1.44,0.186,1.844,0.553c0.396,0.369,0.602,0.959,0.602,1.771v4.75h-0.778L357.814,204.876L357.814,204.876z
			 M355.436,204.133c0.654,0,1.174-0.18,1.548-0.54c0.375-0.358,0.563-0.862,0.563-1.511v-0.628l-1.057,0.044
			c-0.84,0.029-1.439,0.16-1.812,0.393c-0.369,0.229-0.558,0.588-0.558,1.074c0,0.383,0.114,0.672,0.348,0.87
			C354.695,204.034,355.02,204.133,355.436,204.133z"/>
		<path fill="#444444" d="M359.659,197.919h1.132l1.521,3.967c0.334,0.906,0.542,1.563,0.618,1.962h0.055
			c0.057-0.217,0.17-0.586,0.347-1.104c0.177-0.521,0.75-2.133,1.725-4.821h1.134l-2.989,7.923c-0.297,0.782-0.646,1.34-1.038,1.665
			c-0.396,0.328-0.882,0.492-1.456,0.492c-0.32,0-0.64-0.036-0.951-0.104v-0.848c0.23,0.055,0.492,0.076,0.779,0.076
			c0.725,0,1.239-0.404,1.551-1.221l0.387-0.988L359.659,197.919z"/>
		<path fill="#444444" d="M373.321,201.393c0,1.133-0.286,2.021-0.854,2.655c-0.572,0.638-1.357,0.955-2.368,0.955
			c-0.622,0-1.175-0.146-1.653-0.438c-0.48-0.293-0.854-0.711-1.117-1.258c-0.266-0.547-0.396-1.186-0.396-1.916
			c0-1.136,0.283-2.02,0.854-2.646c0.563-0.637,1.354-0.949,2.357-0.949c0.978,0,1.747,0.324,2.32,0.975
			C373.032,199.41,373.321,200.287,373.321,201.393z M368.021,201.393c0,0.893,0.178,1.564,0.529,2.029
			c0.354,0.467,0.878,0.698,1.565,0.698c0.688,0,1.214-0.231,1.571-0.695c0.354-0.464,0.532-1.142,0.532-2.034
			c0-0.885-0.18-1.557-0.532-2.016c-0.357-0.459-0.89-0.688-1.584-0.688c-0.689,0-1.211,0.228-1.563,0.68
			C368.194,199.816,368.021,200.494,368.021,201.393z"/>
		<path fill="#444444" d="M376.157,197.919v4.515c0,0.565,0.129,0.988,0.389,1.271c0.259,0.277,0.663,0.419,1.213,0.419
			c0.729,0,1.26-0.199,1.601-0.599c0.336-0.396,0.505-1.047,0.505-1.947v-3.656h1.055v6.956h-0.869l-0.151-0.935h-0.058
			c-0.219,0.345-0.518,0.604-0.896,0.787c-0.385,0.184-0.817,0.271-1.312,0.271c-0.849,0-1.479-0.201-1.9-0.604
			c-0.422-0.398-0.633-1.045-0.633-1.932v-4.551h1.063L376.157,197.919L376.157,197.919z"/>
		<path fill="#444444" d="M385.396,204.133c0.187,0,0.362-0.014,0.536-0.042c0.177-0.026,0.312-0.056,0.412-0.085v0.807
			c-0.11,0.06-0.278,0.104-0.505,0.142c-0.224,0.032-0.424,0.054-0.602,0.054c-1.35,0-2.021-0.709-2.021-2.126v-4.144h-0.996v-0.508
			l0.996-0.438l0.442-1.482h0.608v1.609h2.02v0.816h-2.02v4.097c0,0.419,0.101,0.74,0.299,0.965
			C384.775,204.021,385.049,204.133,385.396,204.133z"/>
		<path fill="#444444" d="M392.226,202.979c0,0.646-0.238,1.146-0.725,1.498c-0.483,0.354-1.159,0.526-2.031,0.526
			c-0.922,0-1.644-0.146-2.157-0.438v-0.979c0.338,0.169,0.692,0.305,1.075,0.398c0.387,0.099,0.752,0.146,1.105,0.146
			c0.553,0,0.976-0.088,1.271-0.263c0.297-0.178,0.445-0.443,0.445-0.805c0-0.271-0.118-0.502-0.354-0.693
			c-0.235-0.193-0.693-0.42-1.374-0.686c-0.646-0.24-1.106-0.451-1.385-0.633c-0.271-0.182-0.479-0.386-0.605-0.611
			c-0.134-0.229-0.198-0.5-0.198-0.816c0-0.564,0.229-1.018,0.69-1.342c0.461-0.328,1.094-0.492,1.896-0.492
			c0.749,0,1.479,0.15,2.194,0.457l-0.375,0.855c-0.695-0.289-1.33-0.436-1.896-0.436c-0.499,0-0.876,0.078-1.13,0.232
			c-0.254,0.156-0.383,0.373-0.383,0.646c0,0.188,0.05,0.35,0.145,0.479c0.1,0.133,0.249,0.258,0.465,0.375
			c0.211,0.119,0.613,0.289,1.219,0.516c0.824,0.3,1.383,0.604,1.672,0.908C392.078,202.131,392.226,202.518,392.226,202.979z"/>
	</g>
</g>
<g id="sidebar_layouts">
	<g>
		<path fill="#444444" d="M306.514,20.531c0,0.817-0.297,1.454-0.891,1.911s-1.396,0.686-2.411,0.686
			c-1.103,0-1.946-0.142-2.539-0.425v-1.041c0.382,0.161,0.796,0.288,1.243,0.381s0.895,0.14,1.334,0.14
			c0.721,0,1.262-0.136,1.625-0.41c0.361-0.272,0.546-0.652,0.546-1.139c0-0.322-0.063-0.585-0.192-0.791
			c-0.129-0.205-0.346-0.395-0.646-0.568c-0.305-0.173-0.766-0.37-1.381-0.59c-0.862-0.309-1.479-0.675-1.854-1.098
			c-0.371-0.423-0.559-0.976-0.559-1.657c0-0.715,0.271-1.284,0.809-1.708c0.536-0.424,1.248-0.635,2.133-0.635
			c0.927,0,1.771,0.169,2.545,0.508l-0.336,0.939c-0.767-0.322-1.51-0.482-2.229-0.482c-0.569,0-1.021,0.123-1.341,0.368
			c-0.32,0.246-0.479,0.586-0.479,1.022c0,0.322,0.061,0.585,0.178,0.79c0.119,0.206,0.316,0.394,0.604,0.565
			c0.279,0.171,0.712,0.36,1.292,0.568c0.974,0.347,1.644,0.719,2.011,1.117C306.336,19.38,306.514,19.896,306.514,20.531z"/>
		<path fill="#444444" d="M308.161,14.158c0-0.241,0.062-0.418,0.18-0.53c0.118-0.112,0.268-0.168,0.442-0.168
			c0.169,0,0.313,0.057,0.438,0.171c0.123,0.114,0.188,0.29,0.188,0.527c0,0.237-0.062,0.414-0.188,0.53
			c-0.121,0.117-0.271,0.175-0.438,0.175c-0.178,0-0.325-0.058-0.442-0.175C308.223,14.571,308.161,14.395,308.161,14.158z
			 M309.307,23h-1.055v-6.957h1.055V23z"/>
		<path fill="#444444" d="M316.275,22.067h-0.062c-0.483,0.707-1.216,1.06-2.186,1.06c-0.909,0-1.617-0.311-2.123-0.933
			c-0.508-0.622-0.76-1.506-0.76-2.653s0.256-2.038,0.764-2.672c0.51-0.634,1.214-0.952,2.119-0.952c0.94,0,1.668,0.343,2.172,1.028
			h0.082l-0.045-0.501l-0.023-0.489v-2.831h1.058V23h-0.856L316.275,22.067z M314.168,22.245c0.721,0,1.239-0.196,1.563-0.587
			c0.323-0.391,0.481-1.023,0.481-1.895v-0.222c0-0.986-0.16-1.689-0.488-2.111c-0.327-0.421-0.854-0.631-1.571-0.631
			c-0.617,0-1.09,0.24-1.418,0.72s-0.491,1.159-0.491,2.035c0,0.889,0.161,1.56,0.487,2.012
			C313.059,22.018,313.535,22.245,314.168,22.245z"/>
		<path fill="#444444" d="M322.445,23.127c-1.028,0-1.84-0.313-2.438-0.939c-0.597-0.626-0.894-1.496-0.894-2.609
			c0-1.122,0.271-2.012,0.825-2.672c0.555-0.66,1.297-0.99,2.229-0.99c0.87,0,1.562,0.287,2.067,0.86
			c0.508,0.573,0.762,1.33,0.762,2.269v0.667h-4.79c0.021,0.817,0.229,1.437,0.616,1.86c0.393,0.423,0.938,0.635,1.649,0.635
			c0.75,0,1.49-0.157,2.227-0.47v0.939c-0.373,0.161-0.729,0.276-1.061,0.346C323.314,23.092,322.912,23.127,322.445,23.127z
			 M322.157,16.798c-0.561,0-1.005,0.182-1.336,0.546c-0.332,0.364-0.526,0.868-0.587,1.511h3.637c0-0.665-0.146-1.173-0.441-1.527
			C323.133,16.975,322.709,16.798,322.157,16.798z"/>
		<path fill="#444444" d="M330.035,15.929c0.914,0,1.624,0.312,2.131,0.937c0.507,0.624,0.759,1.507,0.759,2.65
			s-0.255,2.03-0.767,2.663c-0.51,0.633-1.219,0.949-2.123,0.949c-0.451,0-0.864-0.083-1.239-0.251
			c-0.374-0.167-0.688-0.424-0.942-0.771h-0.075L327.557,23H326.8v-9.877h1.054v2.399c0,0.538-0.017,1.02-0.051,1.447h0.051
			C328.346,16.276,329.072,15.929,330.035,15.929z M329.885,16.811c-0.722,0-1.235,0.207-1.558,0.619
			c-0.313,0.413-0.477,1.108-0.477,2.085s0.162,1.677,0.486,2.098c0.323,0.421,0.851,0.631,1.565,0.631
			c0.646,0,1.13-0.236,1.443-0.708c0.315-0.472,0.479-1.15,0.479-2.035c0-0.906-0.156-1.581-0.479-2.025
			C331.036,17.032,330.549,16.811,329.885,16.811z"/>
		<path fill="#444444" d="M339.044,23l-0.21-0.99h-0.053c-0.349,0.436-0.69,0.731-1.037,0.886c-0.346,0.154-0.773,0.231-1.292,0.231
			c-0.688,0-1.229-0.178-1.62-0.533c-0.395-0.354-0.589-0.861-0.589-1.517c0-1.405,1.124-2.141,3.37-2.209l1.184-0.038v-0.432
			c0-0.546-0.117-0.949-0.354-1.209c-0.232-0.26-0.607-0.39-1.127-0.39c-0.58,0-1.234,0.178-1.968,0.533l-0.323-0.806
			c0.344-0.186,0.719-0.332,1.127-0.438c0.407-0.106,0.817-0.159,1.229-0.159c0.829,0,1.442,0.184,1.844,0.552
			s0.604,0.958,0.604,1.771V23H339.044z M336.662,22.257c0.654,0,1.173-0.18,1.547-0.54c0.375-0.36,0.562-0.863,0.562-1.511v-0.628
			l-1.059,0.044c-0.84,0.03-1.438,0.16-1.813,0.391c-0.369,0.23-0.558,0.589-0.558,1.076c0,0.381,0.112,0.671,0.347,0.87
			C335.925,22.158,336.247,22.257,336.662,22.257z"/>
		<path fill="#444444" d="M345.17,15.916c0.309,0,0.586,0.025,0.832,0.076l-0.146,0.978c-0.287-0.062-0.541-0.095-0.763-0.095
			c-0.563,0-1.044,0.229-1.442,0.686c-0.396,0.457-0.602,1.026-0.602,1.708V23h-1.056v-6.957h0.869l0.121,1.289h0.051
			c0.26-0.453,0.568-0.802,0.936-1.047C344.334,16.039,344.734,15.916,345.17,15.916z"/>
		<path fill="#444444" d="M351,23v-9.28h1.078v8.303h4.096V23H351z"/>
		<path fill="#444444" d="M361.865,23l-0.21-0.99h-0.051c-0.351,0.436-0.692,0.731-1.037,0.886
			c-0.349,0.154-0.773,0.231-1.292,0.231c-0.688,0-1.229-0.178-1.622-0.533c-0.396-0.354-0.587-0.861-0.587-1.517
			c0-1.405,1.124-2.141,3.37-2.209l1.182-0.038v-0.432c0-0.546-0.116-0.949-0.354-1.209c-0.231-0.26-0.606-0.39-1.127-0.39
			c-0.58,0-1.231,0.178-1.968,0.533l-0.324-0.806c0.348-0.186,0.723-0.332,1.127-0.438c0.408-0.106,0.818-0.159,1.229-0.159
			c0.829,0,1.444,0.184,1.846,0.552c0.398,0.368,0.604,0.958,0.604,1.771V23H361.865z M359.487,22.257
			c0.651,0,1.171-0.18,1.545-0.54c0.375-0.36,0.563-0.863,0.563-1.511v-0.628l-1.057,0.044c-0.838,0.03-1.439,0.16-1.812,0.391
			c-0.366,0.23-0.556,0.589-0.556,1.076c0,0.381,0.113,0.671,0.346,0.87C358.746,22.158,359.072,22.257,359.487,22.257z"/>
		<path fill="#444444" d="M363.715,16.043h1.13l1.521,3.967c0.334,0.906,0.542,1.56,0.622,1.961h0.053
			c0.055-0.216,0.17-0.585,0.346-1.107c0.18-0.523,0.75-2.13,1.728-4.821h1.13l-2.987,7.922c-0.297,0.783-0.645,1.338-1.038,1.666
			c-0.396,0.328-0.882,0.492-1.457,0.492c-0.318,0-0.641-0.036-0.952-0.108v-0.844c0.232,0.051,0.493,0.076,0.781,0.076
			c0.724,0,1.237-0.406,1.549-1.219l0.391-0.99L363.715,16.043z"/>
		<path fill="#444444" d="M377.375,19.515c0,1.134-0.286,2.02-0.856,2.657c-0.568,0.637-1.357,0.955-2.364,0.955
			c-0.622,0-1.179-0.146-1.657-0.438c-0.48-0.292-0.854-0.711-1.115-1.257c-0.264-0.546-0.395-1.185-0.395-1.917
			c0-1.134,0.279-2.018,0.852-2.65c0.565-0.633,1.354-0.949,2.359-0.949c0.976,0,1.747,0.324,2.316,0.971
			C377.088,17.534,377.375,18.411,377.375,19.515z M372.073,19.515c0,0.889,0.18,1.566,0.533,2.031
			c0.354,0.465,0.878,0.698,1.563,0.698c0.688,0,1.214-0.232,1.569-0.695c0.354-0.464,0.536-1.142,0.536-2.035
			c0-0.884-0.182-1.556-0.536-2.015c-0.355-0.459-0.886-0.689-1.584-0.689c-0.688,0-1.21,0.227-1.562,0.679
			C372.246,17.941,372.073,18.618,372.073,19.515z"/>
		<path fill="#444444" d="M380.212,16.043v4.513c0,0.567,0.129,0.99,0.387,1.27c0.263,0.279,0.663,0.419,1.214,0.419
			c0.729,0,1.263-0.199,1.6-0.597c0.336-0.398,0.507-1.047,0.507-1.949v-3.656h1.053V23h-0.87l-0.148-0.933h-0.061
			c-0.217,0.343-0.516,0.605-0.896,0.787c-0.38,0.182-0.818,0.273-1.312,0.273c-0.847,0-1.479-0.201-1.897-0.603
			s-0.632-1.045-0.632-1.93v-4.551H380.212z"/>
		<path fill="#444444" d="M389.448,22.257c0.188,0,0.366-0.014,0.54-0.042c0.173-0.027,0.313-0.056,0.412-0.085v0.806
			c-0.114,0.055-0.282,0.101-0.509,0.137c-0.222,0.036-0.422,0.054-0.602,0.054c-1.346,0-2.019-0.709-2.019-2.126v-4.139h-0.996
			v-0.508l0.996-0.438l0.44-1.485h0.607v1.612h2.021v0.819h-2.021v4.094c0,0.419,0.102,0.741,0.298,0.965
			C388.826,22.145,389.102,22.257,389.448,22.257z"/>
		<path fill="#444444" d="M396.278,21.102c0,0.647-0.242,1.147-0.729,1.498c-0.479,0.351-1.159,0.527-2.027,0.527
			c-0.926,0-1.646-0.146-2.158-0.438v-0.978c0.335,0.169,0.689,0.303,1.076,0.4c0.383,0.097,0.752,0.146,1.104,0.146
			c0.551,0,0.978-0.088,1.271-0.263c0.297-0.176,0.441-0.443,0.441-0.803c0-0.271-0.118-0.502-0.354-0.695
			c-0.233-0.193-0.691-0.42-1.374-0.683c-0.646-0.241-1.106-0.452-1.381-0.632c-0.271-0.18-0.479-0.384-0.609-0.612
			c-0.134-0.229-0.198-0.501-0.198-0.819c0-0.567,0.229-1.015,0.69-1.342c0.461-0.328,1.094-0.492,1.896-0.492
			c0.749,0,1.479,0.152,2.194,0.457l-0.375,0.857c-0.695-0.288-1.329-0.432-1.896-0.432c-0.499,0-0.878,0.078-1.133,0.235
			c-0.254,0.157-0.381,0.373-0.381,0.647c0,0.186,0.048,0.345,0.146,0.476c0.096,0.131,0.249,0.256,0.461,0.375
			c0.211,0.119,0.616,0.29,1.219,0.514c0.824,0.3,1.384,0.603,1.674,0.908C396.132,20.258,396.278,20.641,396.278,21.102z"/>
	</g>
	<rect id="sidebar-a_10_" x="300" y="34" opacity="0.2" enable-background="new    " width="9" height="60"/>
	<rect id="sidebar-b_5_" x="314" y="34" opacity="0.2" enable-background="new    " width="9" height="60"/>
	<rect id="content_12_" x="328" y="34" opacity="0.05" enable-background="new    " width="40" height="60"/>
	<rect id="sidebar-a_9_" x="442" y="34" opacity="0.2" enable-background="new    " width="9" height="60"/>
	<rect id="sidebar-b_4_" x="456" y="34" opacity="0.2" enable-background="new    " width="9" height="60"/>
	<rect id="content_11_" x="398" y="34" opacity="0.05" enable-background="new    " width="39" height="60"/>
	<rect id="sidebar-a_8_" x="491" y="34" opacity="0.2" enable-background="new    " width="9" height="60"/>
	<rect id="sidebar-b_3_" x="551" y="34" opacity="0.2" enable-background="new    " width="9" height="60"/>
	<rect id="content_10_" x="505" y="34" opacity="0.05" enable-background="new    " width="41" height="60"/>
	<rect id="sidebar-a_7_" x="300" y="114" opacity="0.2" enable-background="new    " width="9" height="60"/>
	<rect id="content_9_" x="314" y="114" opacity="0.05" enable-background="new    " width="53" height="60"/>
	<rect id="sidebar-a_6_" x="456" y="114" opacity="0.2" enable-background="new    " width="9" height="60"/>
	<rect id="content_8_" x="398" y="114" opacity="0.05" enable-background="new    " width="53" height="60"/>
	<rect id="content_7_" x="492" y="114" opacity="0.05" enable-background="new    " width="68" height="60"/>
</g>
<g>
	<path fill="#444444" d="M310.955,227.447c0,0.65-0.222,1.15-0.665,1.501c-0.442,0.35-1.077,0.524-1.903,0.524h-0.756V232h-0.748
		v-6.425h1.666C310.154,225.575,310.955,226.199,310.955,227.447z M307.631,228.832h0.672c0.662,0,1.142-0.107,1.438-0.32
		c0.295-0.215,0.442-0.558,0.442-1.029c0-0.424-0.14-0.738-0.418-0.946c-0.277-0.208-0.711-0.313-1.301-0.313h-0.834
		L307.631,228.832L307.631,228.832z"/>
	<path fill="#444444" d="M316.34,232l-0.802-2.043h-2.573L312.174,232h-0.756l2.538-6.451h0.63l2.525,6.451H316.34z
		 M315.307,229.284l-0.746-1.991c-0.098-0.251-0.196-0.561-0.299-0.927c-0.064,0.28-0.156,0.591-0.276,0.927l-0.757,1.991H315.307z"
		/>
	<path fill="#444444" d="M318.742,229.328V232h-0.748v-6.425h1.765c0.788,0,1.37,0.151,1.747,0.452
		c0.376,0.303,0.563,0.756,0.563,1.363c0,0.85-0.432,1.424-1.292,1.723l1.745,2.887h-0.885l-1.558-2.672H318.742z M318.742,228.688
		h1.022c0.527,0,0.914-0.104,1.16-0.313s0.369-0.521,0.369-0.939c0-0.428-0.125-0.73-0.376-0.918
		c-0.25-0.188-0.652-0.281-1.206-0.281h-0.973L318.742,228.688L318.742,228.688z"/>
	<path fill="#444444" d="M327.6,232l-0.8-2.043h-2.575L323.434,232h-0.756l2.54-6.451h0.628l2.525,6.451H327.6z M326.566,229.284
		l-0.746-1.991c-0.099-0.251-0.197-0.561-0.299-0.927c-0.065,0.28-0.157,0.591-0.277,0.927l-0.756,1.991H326.566z"/>
	<path fill="#444444" d="M329.256,232v-6.425h0.748v5.748h2.834V232H329.256z"/>
	<path fill="#444444" d="M337.509,232h-3.582v-6.425h3.582v0.663h-2.834v2.07h2.662v0.656h-2.662v2.364h2.834V232z"/>
	<path fill="#444444" d="M338.932,232v-6.425h0.748v5.748h2.834V232H338.932z"/>
	<path fill="#444444" d="M343.604,232v-6.425h0.748v5.748h2.834V232H343.604z"/>
	<path fill="#444444" d="M310.509,273.091c0,0.565-0.205,1.007-0.615,1.322c-0.409,0.315-0.967,0.476-1.67,0.476
		c-0.762,0-1.348-0.099-1.758-0.296v-0.721c0.265,0.112,0.552,0.2,0.86,0.265c0.312,0.064,0.617,0.098,0.924,0.098
		c0.496,0,0.871-0.096,1.125-0.282c0.252-0.188,0.378-0.451,0.378-0.788c0-0.225-0.047-0.405-0.136-0.548
		c-0.09-0.144-0.237-0.272-0.446-0.396c-0.21-0.119-0.528-0.257-0.956-0.408c-0.6-0.215-1.023-0.467-1.281-0.76
		c-0.256-0.294-0.385-0.677-0.385-1.146c0-0.495,0.188-0.892,0.559-1.185c0.373-0.293,0.864-0.438,1.479-0.438
		c0.639,0,1.227,0.115,1.762,0.354l-0.231,0.648c-0.528-0.225-1.046-0.334-1.547-0.334c-0.396,0-0.705,0.086-0.929,0.256
		c-0.223,0.17-0.333,0.404-0.333,0.707c0,0.225,0.04,0.402,0.122,0.547s0.222,0.271,0.416,0.395c0.192,0.117,0.492,0.25,0.896,0.394
		c0.673,0.24,1.139,0.498,1.393,0.772C310.382,272.294,310.509,272.65,310.509,273.091z"/>
	<path fill="#444444" d="M313.801,274.8h-0.748v-5.762h-2.034v-0.663h4.816v0.663h-2.034V274.8L313.801,274.8z"/>
	<path fill="#444444" d="M320.84,274.8l-0.802-2.043h-2.573l-0.791,2.043h-0.756l2.538-6.45h0.63l2.525,6.45H320.84z
		 M319.807,272.084l-0.746-1.991c-0.098-0.251-0.196-0.561-0.299-0.927c-0.064,0.281-0.156,0.591-0.276,0.927l-0.757,1.991H319.807z
		"/>
	<path fill="#444444" d="M325.246,268.95c-0.707,0-1.264,0.235-1.673,0.706c-0.407,0.47-0.61,1.113-0.61,1.931
		c0,0.843,0.194,1.491,0.591,1.949c0.395,0.459,0.956,0.688,1.686,0.688c0.448,0,0.96-0.08,1.534-0.242v0.656
		c-0.445,0.166-0.995,0.25-1.646,0.25c-0.947,0-1.679-0.287-2.191-0.861s-0.771-1.391-0.771-2.447c0-0.662,0.123-1.242,0.371-1.74
		c0.247-0.498,0.604-0.882,1.072-1.152c0.467-0.269,1.018-0.401,1.648-0.401c0.674,0,1.263,0.123,1.769,0.366l-0.314,0.646
		C326.22,269.064,325.733,268.95,325.246,268.95z"/>
	<path fill="#444444" d="M332.814,274.8h-0.88l-2.342-3.114l-0.672,0.6v2.52h-0.748v-6.427h0.748v3.188l2.911-3.188h0.886
		l-2.584,2.79L332.814,274.8z"/>
	<path fill="#444444" d="M337.28,274.8h-3.582v-6.425h3.582v0.663h-2.834v2.069h2.662v0.66h-2.662v2.361h2.834V274.8z"/>
	<path fill="#444444" d="M343.83,271.525c0,1.062-0.286,1.871-0.861,2.433c-0.576,0.562-1.403,0.842-2.484,0.842h-1.78v-6.425h1.971
		c0.999,0,1.773,0.275,2.33,0.831C343.555,269.759,343.83,270.532,343.83,271.525z M343.039,271.552c0-0.837-0.21-1.469-0.631-1.894
		c-0.42-0.426-1.045-0.639-1.874-0.639h-1.085v5.133h0.909c0.892,0,1.562-0.219,2.009-0.655
		C342.816,273.059,343.039,272.411,343.039,271.552z"/>
	<path fill="#444444" d="M312.012,314.326c0,1.061-0.288,1.871-0.862,2.432c-0.576,0.563-1.404,0.842-2.485,0.842h-1.778v-6.425
		h1.969c0.999,0,1.775,0.276,2.33,0.831C311.734,312.559,312.012,313.332,312.012,314.326z M311.221,314.352
		c0-0.836-0.21-1.469-0.631-1.894c-0.42-0.425-1.045-0.638-1.874-0.638h-1.085v5.133h0.907c0.893,0,1.562-0.219,2.011-0.656
		C310.994,315.857,311.221,315.211,311.221,314.352z"/>
	<path fill="#444444" d="M319.021,314.379c0,1.027-0.261,1.836-0.78,2.426c-0.521,0.588-1.243,0.883-2.168,0.883
		c-0.945,0-1.677-0.289-2.189-0.867c-0.516-0.576-0.771-1.396-0.771-2.448c0-1.045,0.258-1.854,0.772-2.435
		c0.517-0.576,1.248-0.86,2.195-0.86c0.926,0,1.646,0.293,2.162,0.879C318.762,312.539,319.021,313.348,319.021,314.379z
		 M313.9,314.379c0,0.869,0.188,1.529,0.557,1.979c0.37,0.451,0.908,0.678,1.615,0.678c0.711,0,1.249-0.227,1.611-0.676
		c0.363-0.445,0.545-1.105,0.545-1.979c0-0.861-0.181-1.521-0.543-1.967c-0.36-0.447-0.896-0.67-1.605-0.67
		c-0.711,0-1.253,0.225-1.623,0.674C314.087,312.867,313.9,313.521,313.9,314.379z"/>
	<path fill="#444444" d="M325.305,311.175v4.157c0,0.732-0.221,1.309-0.663,1.727c-0.441,0.42-1.05,0.629-1.822,0.629
		c-0.771,0-1.372-0.211-1.796-0.633s-0.636-1.002-0.636-1.74v-4.14h0.747v4.192c0,0.535,0.146,0.947,0.438,1.234
		s0.726,0.432,1.292,0.432c0.542,0,0.959-0.145,1.253-0.434c0.292-0.289,0.438-0.703,0.438-1.242v-4.186L325.305,311.175
		L325.305,311.175z"/>
	<path fill="#444444" d="M327.006,311.175h1.813c0.854,0,1.469,0.128,1.853,0.382c0.38,0.256,0.568,0.658,0.568,1.209
		c0,0.381-0.104,0.695-0.316,0.942c-0.212,0.248-0.521,0.408-0.932,0.481v0.043c0.979,0.168,1.465,0.681,1.465,1.539
		c0,0.571-0.193,1.021-0.581,1.345c-0.391,0.321-0.934,0.483-1.629,0.483h-2.241V311.175L327.006,311.175z M327.754,313.926h1.229
		c0.526,0,0.905-0.083,1.138-0.248c0.23-0.166,0.349-0.443,0.349-0.838c0-0.359-0.129-0.619-0.389-0.779
		c-0.258-0.16-0.668-0.24-1.229-0.24h-1.098V313.926z M327.754,314.559v2.404h1.34c0.52,0,0.909-0.102,1.171-0.302
		c0.264-0.2,0.395-0.515,0.395-0.942c0-0.398-0.134-0.691-0.4-0.879c-0.27-0.188-0.678-0.281-1.226-0.281H327.754z"/>
	<path fill="#444444" d="M332.837,317.6v-6.425h0.748v5.748h2.834v0.677H332.837z"/>
	<path fill="#444444" d="M341.09,317.6h-3.582v-6.425h3.582v0.663h-2.834v2.07h2.662v0.658h-2.662v2.365h2.834V317.6z"/>
	<path fill="#444444" d="M347.643,314.326c0,1.061-0.287,1.871-0.862,2.432c-0.576,0.563-1.402,0.842-2.483,0.842h-1.78v-6.425h1.97
		c0.999,0,1.774,0.276,2.33,0.831C347.365,312.559,347.643,313.332,347.643,314.326z M346.852,314.352
		c0-0.836-0.21-1.469-0.631-1.894c-0.42-0.425-1.045-0.638-1.874-0.638h-1.085v5.133h0.909c0.891,0,1.561-0.219,2.009-0.656
		C346.627,315.857,346.852,315.211,346.852,314.352z"/>
</g>
<g>
	<path fill="#444444" d="M133.477,245.75l-2.18-5.695h-0.035c0.041,0.451,0.063,0.987,0.063,1.608v4.087h-0.69v-6.425h1.125
		l2.035,5.3h0.035l2.052-5.3h1.116v6.425h-0.747v-4.141c0-0.476,0.021-0.989,0.062-1.547h-0.035l-2.195,5.688H133.477z"/>
	<path fill="#444444" d="M142.797,245.75l-0.8-2.043h-2.575l-0.791,2.043h-0.756l2.54-6.451h0.628l2.525,6.451H142.797z
		 M141.765,243.034l-0.747-1.991c-0.097-0.251-0.196-0.561-0.299-0.927c-0.064,0.28-0.157,0.591-0.277,0.927l-0.756,1.991H141.765z"
		/>
	<path fill="#444444" d="M144.454,245.75v-6.425h0.747v6.425H144.454z"/>
	<path fill="#444444" d="M151.982,245.75h-0.853l-3.511-5.393h-0.035c0.047,0.633,0.068,1.213,0.068,1.74v3.65h-0.688v-6.425h0.844
		l3.502,5.368h0.035c-0.006-0.078-0.019-0.332-0.04-0.762c-0.021-0.43-0.028-0.736-0.021-0.922v-3.688h0.697L151.982,245.75
		L151.982,245.75z"/>
	<path fill="#444444" d="M153.234,243.672v-0.668h2.158v0.668H153.234z"/>
	<path fill="#444444" d="M156.645,239.325h1.815c0.853,0,1.469,0.128,1.85,0.382c0.381,0.256,0.571,0.658,0.571,1.209
		c0,0.381-0.106,0.695-0.319,0.941c-0.212,0.248-0.521,0.408-0.929,0.48v0.044c0.976,0.167,1.463,0.681,1.463,1.538
		c0,0.574-0.194,1.021-0.582,1.346c-0.389,0.321-0.931,0.482-1.628,0.482h-2.241V239.325z M157.392,242.076h1.23
		c0.525,0,0.905-0.083,1.138-0.248c0.231-0.166,0.347-0.444,0.347-0.838c0-0.359-0.129-0.62-0.387-0.779
		c-0.258-0.16-0.668-0.24-1.229-0.24h-1.101L157.392,242.076L157.392,242.076z M157.392,242.709v2.404h1.34
		c0.521,0,0.909-0.102,1.171-0.303c0.264-0.199,0.396-0.516,0.396-0.941c0-0.398-0.134-0.691-0.402-0.879
		c-0.268-0.188-0.676-0.281-1.224-0.281H157.392L157.392,242.709z"/>
	<path fill="#444444" d="M168.053,242.529c0,1.027-0.26,1.836-0.78,2.426c-0.52,0.588-1.243,0.883-2.168,0.883
		c-0.944,0-1.676-0.289-2.189-0.867c-0.515-0.578-0.771-1.396-0.771-2.451c0-1.045,0.258-1.854,0.773-2.432
		c0.515-0.577,1.248-0.863,2.195-0.863c0.925,0,1.646,0.293,2.162,0.879C167.793,240.689,168.053,241.498,168.053,242.529z
		 M162.933,242.529c0,0.869,0.187,1.529,0.556,1.979c0.37,0.45,0.909,0.676,1.615,0.676c0.712,0,1.25-0.226,1.613-0.674
		c0.363-0.447,0.545-1.107,0.545-1.98c0-0.863-0.181-1.521-0.543-1.967s-0.897-0.67-1.606-0.67c-0.712,0-1.253,0.226-1.624,0.674
		C163.118,241.018,162.933,241.671,162.933,242.529z"/>
	<path fill="#444444" d="M171.463,245.75h-0.747v-5.762h-2.035v-0.663h4.816v0.663h-2.035L171.463,245.75L171.463,245.75z"/>
	<path fill="#444444" d="M176.442,245.75h-0.747v-5.762h-2.033v-0.663h4.814v0.663h-2.035L176.442,245.75L176.442,245.75z"/>
	<path fill="#444444" d="M185.02,242.529c0,1.027-0.26,1.836-0.778,2.426c-0.521,0.588-1.243,0.883-2.17,0.883
		c-0.944,0-1.676-0.289-2.189-0.867s-0.771-1.396-0.771-2.451c0-1.045,0.26-1.854,0.773-2.432c0.516-0.576,1.248-0.863,2.197-0.863
		c0.923,0,1.644,0.293,2.162,0.879C184.76,240.689,185.02,241.498,185.02,242.529z M179.9,242.529c0,0.869,0.187,1.529,0.558,1.979
		c0.37,0.449,0.908,0.676,1.613,0.676c0.714,0,1.25-0.226,1.613-0.674c0.363-0.447,0.545-1.107,0.545-1.98
		c0-0.863-0.181-1.521-0.543-1.967c-0.36-0.446-0.896-0.67-1.604-0.67c-0.712,0-1.253,0.226-1.624,0.674
		C180.085,241.018,179.9,241.671,179.9,242.529z"/>
	<path fill="#444444" d="M189.296,245.75l-2.18-5.695h-0.035c0.041,0.451,0.062,0.987,0.062,1.608v4.087h-0.688v-6.425h1.125
		l2.033,5.3h0.035l2.054-5.3h1.114v6.425h-0.747v-4.141c0-0.476,0.021-0.989,0.063-1.547h-0.035l-2.197,5.688H189.296z"/>
</g>
<g>
	<path fill="#444444" d="M143.477,173.75l-2.18-5.695h-0.035c0.041,0.451,0.063,0.987,0.063,1.608v4.087h-0.69v-6.425h1.125
		l2.035,5.3h0.035l2.052-5.3h1.116v6.425h-0.747v-4.141c0-0.475,0.021-0.989,0.062-1.547h-0.035l-2.195,5.688H143.477z"/>
	<path fill="#444444" d="M152.797,173.75l-0.8-2.043h-2.575l-0.791,2.043h-0.756l2.54-6.451h0.628l2.525,6.451H152.797z
		 M151.765,171.034l-0.747-1.991c-0.097-0.251-0.196-0.561-0.299-0.927c-0.064,0.28-0.157,0.591-0.277,0.927l-0.756,1.991H151.765z"
		/>
	<path fill="#444444" d="M154.454,173.75v-6.425h0.747v6.425H154.454z"/>
	<path fill="#444444" d="M161.982,173.75h-0.853l-3.511-5.393h-0.035c0.047,0.633,0.068,1.213,0.068,1.74v3.651h-0.688v-6.425h0.844
		l3.502,5.369h0.035c-0.006-0.078-0.019-0.332-0.04-0.762c-0.021-0.43-0.028-0.736-0.021-0.922v-3.687h0.697L161.982,173.75
		L161.982,173.75z"/>
	<path fill="#444444" d="M163.234,171.672v-0.668h2.158v0.668H163.234z"/>
	<path fill="#444444" d="M168.622,173.75h-0.747v-5.762h-2.035v-0.663h4.814v0.663h-2.033L168.622,173.75L168.622,173.75z"/>
	<path fill="#444444" d="M177.2,170.529c0,1.027-0.262,1.836-0.78,2.426c-0.521,0.588-1.243,0.883-2.168,0.883
		c-0.946,0-1.676-0.289-2.191-0.867c-0.514-0.578-0.771-1.396-0.771-2.451c0-1.045,0.258-1.855,0.771-2.432
		c0.518-0.576,1.248-0.863,2.197-0.863c0.923,0,1.644,0.293,2.162,0.879S177.2,169.498,177.2,170.529z M172.081,170.529
		c0,0.869,0.185,1.529,0.556,1.979c0.37,0.449,0.909,0.676,1.615,0.676c0.712,0,1.25-0.226,1.613-0.674
		c0.361-0.447,0.545-1.107,0.545-1.98c0-0.864-0.183-1.521-0.543-1.967c-0.362-0.447-0.897-0.67-1.606-0.67
		c-0.712,0-1.253,0.225-1.624,0.674C172.266,169.018,172.081,169.671,172.081,170.529z"/>
	<path fill="#444444" d="M182.707,169.197c0,0.65-0.224,1.15-0.666,1.501c-0.443,0.35-1.079,0.524-1.905,0.524h-0.756v2.526h-0.747
		v-6.425h1.666C181.904,167.325,182.707,167.949,182.707,169.197z M179.38,170.582h0.672c0.662,0,1.141-0.107,1.437-0.321
		c0.298-0.214,0.444-0.557,0.444-1.028c0-0.424-0.139-0.74-0.417-0.948s-0.712-0.312-1.301-0.312h-0.835V170.582L179.38,170.582z"/>
</g>
<g>
	<path fill="#444444" d="M15.587,206.08l-6.666,2.678v-0.949l5.757-2.248l-5.757-2.25v-0.949l6.666,2.689V206.08z"/>
	<path fill="#444444" d="M15.587,201.488H8.921v-4.367H9.66v3.538h2.148v-3.468h0.74v3.468h2.299v-3.538h0.739V201.488z"/>
	<path fill="#444444" d="M15.587,191.941l-2.648,1.699v1.329h2.648v0.829H8.921v-2.678c0-1.22,0.779-2.09,2.009-2.09
		c1.199,0,1.858,0.82,1.938,1.729l2.719-1.799V191.941z M10.93,191.891c-0.75,0-1.27,0.54-1.27,1.33v1.749h2.549v-1.749
		C12.209,192.431,11.679,191.891,10.93,191.891z"/>
	<path fill="#444444" d="M15.587,188.17H9.66v2.109H8.921v-5.058H9.66v2.118h5.927V188.17z"/>
	<path fill="#444444" d="M15.587,184.119H8.921v-0.83h6.666V184.119z"/>
	<path fill="#444444" d="M12.259,181.999c-2.049,0-3.448-1.509-3.448-3.429c0-1.179,0.569-1.998,1.319-2.527l0.39,0.699
		c-0.56,0.379-0.97,1.069-0.97,1.828c0,1.46,1.12,2.569,2.709,2.569c1.579,0,2.708-1.109,2.708-2.569
		c0-0.759-0.399-1.449-0.969-1.828l0.39-0.71c0.76,0.56,1.319,1.359,1.319,2.538C15.707,180.49,14.308,181.999,12.259,181.999z"/>
	<path fill="#444444" d="M15.587,170.241l-1.479,0.59v3.318l1.479,0.589v0.95l-6.666-2.679v-1.029l6.666-2.688V170.241z
		 M9.781,172.49l3.588,1.419v-2.828L9.781,172.49z"/>
	<path fill="#444444" d="M15.587,168.419H8.921v-0.829h5.927v-3.099h0.739V168.419z"/>
	<path fill="#444444" d="M15.587,156.021l-5.317,3.888h5.317v0.829H8.921v-0.849l5.207-3.838H8.921v-0.83h6.666V156.021z"/>
	<path fill="#444444" d="M15.587,148.902l-1.479,0.59v3.318l1.479,0.589v0.95l-6.666-2.679v-1.029l6.666-2.688V148.902z
		 M9.781,151.151l3.588,1.419v-2.828L9.781,151.151z"/>
	<path fill="#444444" d="M15.587,145.63l-6.666,2.679v-0.95l5.757-2.249l-5.757-2.249v-0.949l6.666,2.688V145.63z"/>
</g>
<g>
	<path fill="#444444" d="M150.693,148.476v-5.927h-2.109v-0.739h5.057v0.739h-2.119v5.927H150.693z"/>
	<path fill="#444444" d="M154.204,145.148c0-1.969,1.329-3.448,3.308-3.448c1.969,0,3.308,1.479,3.308,3.448
		s-1.339,3.448-3.308,3.448C155.533,148.596,154.204,147.117,154.204,145.148z M159.961,145.148c0-1.56-0.959-2.709-2.449-2.709
		c-1.499,0-2.449,1.149-2.449,2.709c0,1.549,0.95,2.708,2.449,2.708C159.002,147.856,159.961,146.697,159.961,145.148z"/>
	<path fill="#444444" d="M162.124,148.476v-6.666h2.678c1.339,0,2.089,0.919,2.089,2.009c0,1.089-0.77,2.009-2.089,2.009h-1.849
		v2.648H162.124z M166.032,143.819c0-0.75-0.54-1.27-1.329-1.27h-1.75v2.539h1.75C165.492,145.088,166.032,144.568,166.032,143.819z
		"/>
	<path fill="#444444" d="M167.174,146.387v-0.659h2.399v0.659H167.174z"/>
	<path fill="#444444" d="M170.384,145.148c0-2.049,1.509-3.448,3.428-3.448c1.179,0,1.999,0.569,2.528,1.319l-0.7,0.39
		c-0.379-0.56-1.069-0.97-1.829-0.97c-1.459,0-2.569,1.12-2.569,2.709c0,1.579,1.109,2.708,2.569,2.708
		c0.759,0,1.449-0.399,1.829-0.969l0.71,0.39c-0.56,0.76-1.359,1.319-2.539,1.319C171.893,148.596,170.384,147.197,170.384,145.148z
		"/>
</g>
</svg>
