<?xml version="1.0" encoding="utf-8"?>
<!DOCTYPE svg PUBLIC "-//W3C//DTD SVG 1.1//EN" "http://www.w3.org/Graphics/SVG/1.1/DTD/svg11.dtd">
<svg version="1.1" id="demo_image" xmlns="http://www.w3.org/2000/svg" xmlns:xlink="http://www.w3.org/1999/xlink" x="0px" y="0px"
	 width="90px" height="90px" viewBox="0 0 90 90" enable-background="new 0 0 90 90" xml:space="preserve">
<path fill="#444444" d="M89.999,73.801C89.999,82.748,82.746,90,73.8,90H16.2C7.253,90,0,82.748,0,73.801V16.2
	C0,7.253,7.253,0,16.2,0h57.6c8.946,0,16.199,7.253,16.199,16.2V73.801L89.999,73.801z"/>
<path fill="#FFFFFF" d="M23.667,44.661c0,3.453-0.905,6.064-2.716,7.83c-1.812,1.771-4.47,2.654-7.978,2.654H8.047V34.573h5.558
	c3.284,0,5.782,0.858,7.495,2.575C22.811,38.865,23.667,41.369,23.667,44.661z M22.106,44.718c0-2.946-0.748-5.162-2.244-6.649
	c-1.498-1.486-3.694-2.229-6.593-2.229H9.483v18.039h3.405C19.032,53.877,22.106,50.824,22.106,44.718z"/>
<path fill="#FFFFFF" d="M34.22,55.426c-2.223,0-3.956-0.686-5.198-2.055c-1.244-1.369-1.865-3.287-1.865-5.756
	c0-2.438,0.602-4.393,1.802-5.859c1.201-1.469,2.819-2.202,4.854-2.202c1.801,0,3.223,0.628,4.265,1.885
	c1.041,1.258,1.562,2.965,1.562,5.122v1.127H28.62c0.02,2.102,0.51,3.705,1.471,4.811c0.962,1.107,2.34,1.66,4.13,1.66
	c0.873,0,1.642-0.061,2.3-0.182c0.664-0.123,1.5-0.385,2.514-0.789v1.268c-0.862,0.375-1.66,0.631-2.393,0.768
	S35.102,55.426,34.22,55.426z M33.813,40.792c-1.474,0-2.654,0.485-3.547,1.456c-0.891,0.971-1.41,2.371-1.562,4.2h9.456
	c0-1.771-0.385-3.159-1.154-4.158S35.172,40.792,33.813,40.792z"/>
<path fill="#FFFFFF" d="M62.97,55.145V45.111c0-1.491-0.291-2.579-0.873-3.265c-0.58-0.685-1.473-1.027-2.674-1.027
	c-1.566,0-2.725,0.432-3.477,1.295c-0.75,0.863-1.125,2.219-1.125,4.067v8.963h-1.422V44.689c0-2.58-1.182-3.87-3.545-3.87
	c-1.604,0-2.772,0.467-3.504,1.4c-0.733,0.933-1.099,2.428-1.099,4.481v8.443h-1.394V39.849h1.153l0.296,2.097h0.084
	c0.424-0.76,1.023-1.349,1.803-1.766c0.777-0.418,1.637-0.626,2.574-0.626c2.41,0,3.959,0.905,4.645,2.716h0.056
	c0.497-0.873,1.165-1.544,2.005-2.013c0.84-0.469,1.795-0.703,2.864-0.703c1.67,0,2.922,0.445,3.757,1.336
	c0.836,0.892,1.254,2.309,1.254,4.25v10.005H62.97z"/>
<path fill="#FFFFFF" d="M81.952,47.477c0,2.494-0.605,4.441-1.815,5.848c-1.21,1.4-2.88,2.104-5.01,2.104
	c-1.341,0-2.522-0.324-3.546-0.973c-1.023-0.646-1.807-1.576-2.35-2.785c-0.545-1.211-0.816-2.607-0.816-4.193
	c0-2.495,0.605-4.439,1.814-5.833c1.211-1.393,2.871-2.089,4.981-2.089c2.101,0,3.749,0.705,4.946,2.117
	C81.354,43.083,81.952,45.018,81.952,47.477z M69.879,47.477c0,2.102,0.461,3.74,1.388,4.918c0.922,1.176,2.229,1.766,3.918,1.766
	c1.688,0,2.993-0.59,3.918-1.766c0.924-1.178,1.387-2.816,1.387-4.918c0-2.111-0.469-3.749-1.399-4.912
	c-0.935-1.163-2.245-1.745-3.935-1.745c-1.688,0-2.988,0.58-3.904,1.738C70.337,43.716,69.879,45.355,69.879,47.477z"/>
</svg>
