<?xml version="1.0" encoding="utf-8"?>
<!DOCTYPE svg PUBLIC "-//W3C//DTD SVG 1.1//EN" "http://www.w3.org/Graphics/SVG/1.1/DTD/svg11.dtd">
<svg version="1.1" id="logo" xmlns="http://www.w3.org/2000/svg" xmlns:xlink="http://www.w3.org/1999/xlink" x="0px" y="0px"
	 width="160px" height="50px" viewBox="0 0 160 50" enable-background="new 0 0 160 50" xml:space="preserve">
<rect fill="#2990B3" width="53" height="50"/>
<polygon fill="#FFFFFF" points="9,36 27,16 44,36 35,32 30,35 25,29 "/>
<path fill="#656565" d="M156.46,36.57c0,0.38-0.15,0.72-0.43,1c-0.29,0.29-0.67,0.43-1.141,0.43c-0.479,0-0.87-0.21-1.17-0.62
	L144.9,26.15l-3.9,3.93v6.38c0,0.44-0.14,0.8-0.45,1.1c-0.31,0.29-0.675,0.44-1.104,0.44c-0.431,0-0.752-0.15-1.043-0.44
	c-0.301-0.3-0.402-0.659-0.402-1.1V15.39c0-0.43,0.104-0.8,0.405-1.11c0.29-0.3,0.637-0.46,1.067-0.46c0.43,0,0.779,0.16,1.088,0.46
	c0.311,0.31,0.439,0.68,0.439,1.11v10.86l11.69-11.88c0.3-0.37,0.675-0.55,1.114-0.55c0.44,0,0.803,0.13,1.082,0.39
	c0.271,0.27,0.402,0.61,0.402,1.03c0,0.42-0.12,0.76-0.37,1.01l-7.889,7.85l9.05,11.41C156.33,35.83,156.46,36.18,156.46,36.57z"/>
<path fill="#656565" d="M133.576,35.78c0.114,0.273,0.171,0.563,0.171,0.871c0,0.307-0.137,0.609-0.409,0.904
	C133.064,37.852,132.632,38,132.04,38c-0.593,0-1.024-0.318-1.298-0.956l-2.22-5.327h-11.611l-2.22,5.327
	c-0.272,0.638-0.705,0.956-1.297,0.956c-0.593,0-1.024-0.148-1.298-0.444c-0.273-0.295-0.41-0.598-0.41-0.904
	c0-0.308,0.057-0.598,0.171-0.871l8.708-20.558c0.41-0.934,1.07-1.4,1.98-1.4h0.342c0.91,0,1.571,0.467,1.98,1.4L133.576,35.78z
	 M127.327,28.882l-4.61-11.099l-4.61,11.099H127.327z"/>
<path fill="#656565" d="M108.6,35.385c0.28,0.29,0.42,0.623,0.42,1.022c0,0.41-0.14,0.837-0.42,1.106
	c-0.29,0.271-0.64,0.486-1.05,0.486H93.86c-0.431,0-0.961-0.235-1.251-0.535C92.31,37.175,92,36.73,92,36.29V15.56
	c0-0.43,0.31-0.795,0.609-1.105c0.29-0.3,0.82-0.455,1.251-0.455h13.689c0.41,0,0.76,0.135,1.05,0.425
	c0.28,0.29,0.42,0.627,0.42,1.038s-0.14,0.799-0.42,1.079c-0.29,0.27-0.64,0.458-1.05,0.458H95v7h11.33c0.41,0,0.75,0.36,1.04,0.65
	c0.28,0.28,0.42,0.739,0.42,1.149s-0.14,0.636-0.42,0.916c-0.29,0.27-0.63,0.284-1.04,0.284H95v8h12.55
	C107.96,35,108.31,35.105,108.6,35.385z"/>
<path fill="#656565" d="M78.802,13.992c3.164,0,5.543,0.82,7.137,2.459c1.32,1.32,1.98,3.028,1.98,5.123s-0.66,3.802-1.98,5.122
	c-1.594,1.64-3.973,2.459-7.137,2.459h-6.216v7.308c0,0.433-0.153,0.798-0.461,1.093C71.817,37.852,71.447,38,71.016,38
	c-0.434,0-0.798-0.148-1.093-0.444c-0.297-0.295-0.444-0.66-0.444-1.093V15.563c0-0.433,0.147-0.802,0.444-1.11
	c0.295-0.307,0.659-0.461,1.093-0.461H78.802z M78.494,26.219c2.345,0,4.041-0.501,5.088-1.503c0.819-0.774,1.229-1.821,1.229-3.142
	c0-2.117-1.059-3.529-3.176-4.234c-0.819-0.273-1.867-0.41-3.142-0.41h-5.908v9.289H78.494z"/>
</svg>
